%TF.GenerationSoftware,KiCad,Pcbnew,7.0.10-7.0.10~ubuntu22.04.1*%
%TF.CreationDate,2024-03-31T22:48:29-03:00*%
%TF.ProjectId,SweetSafe,53776565-7453-4616-9665-2e6b69636164,rev?*%
%TF.SameCoordinates,Original*%
%TF.FileFunction,Copper,L1,Top*%
%TF.FilePolarity,Positive*%
%FSLAX46Y46*%
G04 Gerber Fmt 4.6, Leading zero omitted, Abs format (unit mm)*
G04 Created by KiCad (PCBNEW 7.0.10-7.0.10~ubuntu22.04.1) date 2024-03-31 22:48:29*
%MOMM*%
%LPD*%
G01*
G04 APERTURE LIST*
G04 Aperture macros list*
%AMRoundRect*
0 Rectangle with rounded corners*
0 $1 Rounding radius*
0 $2 $3 $4 $5 $6 $7 $8 $9 X,Y pos of 4 corners*
0 Add a 4 corners polygon primitive as box body*
4,1,4,$2,$3,$4,$5,$6,$7,$8,$9,$2,$3,0*
0 Add four circle primitives for the rounded corners*
1,1,$1+$1,$2,$3*
1,1,$1+$1,$4,$5*
1,1,$1+$1,$6,$7*
1,1,$1+$1,$8,$9*
0 Add four rect primitives between the rounded corners*
20,1,$1+$1,$2,$3,$4,$5,0*
20,1,$1+$1,$4,$5,$6,$7,0*
20,1,$1+$1,$6,$7,$8,$9,0*
20,1,$1+$1,$8,$9,$2,$3,0*%
G04 Aperture macros list end*
%TA.AperFunction,ComponentPad*%
%ADD10R,2.475000X2.475000*%
%TD*%
%TA.AperFunction,ComponentPad*%
%ADD11C,2.475000*%
%TD*%
%TA.AperFunction,ComponentPad*%
%ADD12C,2.400000*%
%TD*%
%TA.AperFunction,ComponentPad*%
%ADD13O,2.400000X2.400000*%
%TD*%
%TA.AperFunction,ComponentPad*%
%ADD14R,2.000000X2.000000*%
%TD*%
%TA.AperFunction,ComponentPad*%
%ADD15C,2.000000*%
%TD*%
%TA.AperFunction,ComponentPad*%
%ADD16R,1.500000X1.500000*%
%TD*%
%TA.AperFunction,ComponentPad*%
%ADD17C,1.500000*%
%TD*%
%TA.AperFunction,ComponentPad*%
%ADD18O,1.700000X1.700000*%
%TD*%
%TA.AperFunction,SMDPad,CuDef*%
%ADD19R,3.500000X1.700000*%
%TD*%
%TA.AperFunction,ComponentPad*%
%ADD20R,1.700000X1.700000*%
%TD*%
%TA.AperFunction,SMDPad,CuDef*%
%ADD21R,1.700000X3.500000*%
%TD*%
%TA.AperFunction,ComponentPad*%
%ADD22R,3.500000X3.500000*%
%TD*%
%TA.AperFunction,ComponentPad*%
%ADD23RoundRect,0.750000X0.750000X1.000000X-0.750000X1.000000X-0.750000X-1.000000X0.750000X-1.000000X0*%
%TD*%
%TA.AperFunction,ComponentPad*%
%ADD24RoundRect,0.875000X0.875000X0.875000X-0.875000X0.875000X-0.875000X-0.875000X0.875000X-0.875000X0*%
%TD*%
%TA.AperFunction,Conductor*%
%ADD25C,1.200000*%
%TD*%
G04 APERTURE END LIST*
D10*
%TO.P,SW1,1,A*%
%TO.N,unconnected-(SW1A-A-Pad1)*%
X66040000Y-114300000D03*
D11*
%TO.P,SW1,2,B*%
%TO.N,GND*%
X49940000Y-114300000D03*
%TO.P,SW1,3,C*%
%TO.N,Switch*%
X57240000Y-114300000D03*
%TD*%
D12*
%TO.P,R1,1*%
%TO.N,GreenLed*%
X73660000Y-106680000D03*
D13*
%TO.P,R1,2*%
%TO.N,Net-(GreenLed+1-Pin_2)*%
X88900000Y-106680000D03*
%TD*%
D14*
%TO.P,BZ1,1,+*%
%TO.N,Buzzer*%
X86380000Y-76200000D03*
D15*
%TO.P,BZ1,2,-*%
%TO.N,GND*%
X93980000Y-76200000D03*
%TD*%
D16*
%TO.P,Q1,1,C*%
%TO.N,Net-(Electromagnet+1-Pin_1)*%
X101600000Y-93980000D03*
D17*
%TO.P,Q1,2,B*%
%TO.N,Net-(Q1-B)*%
X101600000Y-91440000D03*
%TO.P,Q1,3,E*%
%TO.N,GND*%
X101600000Y-88900000D03*
%TD*%
D12*
%TO.P,R3,1*%
%TO.N,Electromagnet*%
X78740000Y-91440000D03*
D13*
%TO.P,R3,2*%
%TO.N,Net-(Q1-B)*%
X93980000Y-91440000D03*
%TD*%
D18*
%TO.P,U1,1,GPIO0*%
%TO.N,unconnected-(U1-GPIO0-Pad1)*%
X48260000Y-55880000D03*
D19*
X47360000Y-55880000D03*
D18*
%TO.P,U1,2,GPIO1*%
%TO.N,unconnected-(U1-GPIO1-Pad2)*%
X48260000Y-58420000D03*
D19*
X47360000Y-58420000D03*
D20*
%TO.P,U1,3,GND*%
%TO.N,GND*%
X48260000Y-60960000D03*
D19*
X47360000Y-60960000D03*
D18*
%TO.P,U1,4,GPIO2*%
%TO.N,unconnected-(U1-GPIO2-Pad4)*%
X48260000Y-63500000D03*
D19*
X47360000Y-63500000D03*
D18*
%TO.P,U1,5,GPIO3*%
%TO.N,unconnected-(U1-GPIO3-Pad5)*%
X48260000Y-66040000D03*
D19*
X47360000Y-66040000D03*
D18*
%TO.P,U1,6,GPIO4*%
%TO.N,unconnected-(U1-GPIO4-Pad6)*%
X48260000Y-68580000D03*
D19*
X47360000Y-68580000D03*
D18*
%TO.P,U1,7,GPIO5*%
%TO.N,unconnected-(U1-GPIO5-Pad7)*%
X48260000Y-71120000D03*
D19*
X47360000Y-71120000D03*
D20*
%TO.P,U1,8,GND*%
%TO.N,unconnected-(U1-GND-Pad8)*%
X48260000Y-73660000D03*
D19*
X47360000Y-73660000D03*
D18*
%TO.P,U1,9,GPIO6*%
%TO.N,unconnected-(U1-GPIO6-Pad9)*%
X48260000Y-76200000D03*
D19*
X47360000Y-76200000D03*
D18*
%TO.P,U1,10,GPIO7*%
%TO.N,unconnected-(U1-GPIO7-Pad10)*%
X48260000Y-78740000D03*
D19*
X47360000Y-78740000D03*
D18*
%TO.P,U1,11,GPIO8*%
%TO.N,unconnected-(U1-GPIO8-Pad11)*%
X48260000Y-81280000D03*
D19*
X47360000Y-81280000D03*
D18*
%TO.P,U1,12,GPIO9*%
%TO.N,unconnected-(U1-GPIO9-Pad12)*%
X48260000Y-83820000D03*
D19*
X47360000Y-83820000D03*
D20*
%TO.P,U1,13,GND*%
%TO.N,unconnected-(U1-GND-Pad13)*%
X48260000Y-86360000D03*
D19*
X47360000Y-86360000D03*
D18*
%TO.P,U1,14,GPIO10*%
%TO.N,unconnected-(U1-GPIO10-Pad14)*%
X48260000Y-88900000D03*
D19*
X47360000Y-88900000D03*
D18*
%TO.P,U1,15,GPIO11*%
%TO.N,unconnected-(U1-GPIO11-Pad15)*%
X48260000Y-91440000D03*
D19*
X47360000Y-91440000D03*
D18*
%TO.P,U1,16,GPIO12*%
%TO.N,unconnected-(U1-GPIO12-Pad16)*%
X48260000Y-93980000D03*
D19*
X47360000Y-93980000D03*
D18*
%TO.P,U1,17,GPIO13*%
%TO.N,unconnected-(U1-GPIO13-Pad17)*%
X48260000Y-96520000D03*
D19*
X47360000Y-96520000D03*
D20*
%TO.P,U1,18,GND*%
%TO.N,GND*%
X48260000Y-99060000D03*
D19*
X47360000Y-99060000D03*
D18*
%TO.P,U1,19,GPIO14*%
%TO.N,unconnected-(U1-GPIO14-Pad19)*%
X48260000Y-101600000D03*
D19*
X47360000Y-101600000D03*
D18*
%TO.P,U1,20,GPIO15*%
%TO.N,unconnected-(U1-GPIO15-Pad20)*%
X48260000Y-104140000D03*
D19*
X47360000Y-104140000D03*
D18*
%TO.P,U1,21,GPIO16*%
%TO.N,unconnected-(U1-GPIO16-Pad21)*%
X66040000Y-104140000D03*
D19*
X66940000Y-104140000D03*
D18*
%TO.P,U1,22,GPIO17*%
%TO.N,Switch*%
X66040000Y-101600000D03*
D19*
X66940000Y-101600000D03*
D20*
%TO.P,U1,23,GND*%
%TO.N,unconnected-(U1-GND-Pad23)*%
X66040000Y-99060000D03*
D19*
X66940000Y-99060000D03*
D18*
%TO.P,U1,24,GPIO18*%
%TO.N,GreenLed*%
X66040000Y-96520000D03*
D19*
X66940000Y-96520000D03*
D18*
%TO.P,U1,25,GPIO19*%
%TO.N,RedLed*%
X66040000Y-93980000D03*
D19*
X66940000Y-93980000D03*
D18*
%TO.P,U1,26,GPIO20*%
%TO.N,Electromagnet*%
X66040000Y-91440000D03*
D19*
X66940000Y-91440000D03*
D18*
%TO.P,U1,27,GPIO21*%
%TO.N,Buzzer*%
X66040000Y-88900000D03*
D19*
X66940000Y-88900000D03*
D20*
%TO.P,U1,28,GND*%
%TO.N,unconnected-(U1-GND-Pad28)*%
X66040000Y-86360000D03*
D19*
X66940000Y-86360000D03*
D18*
%TO.P,U1,29,GPIO22*%
%TO.N,unconnected-(U1-GPIO22-Pad29)*%
X66040000Y-83820000D03*
D19*
X66940000Y-83820000D03*
D18*
%TO.P,U1,30,RUN*%
%TO.N,unconnected-(U1-RUN-Pad30)*%
X66040000Y-81280000D03*
D19*
X66940000Y-81280000D03*
D18*
%TO.P,U1,31,GPIO26_ADC0*%
%TO.N,unconnected-(U1-GPIO26_ADC0-Pad31)*%
X66040000Y-78740000D03*
D19*
X66940000Y-78740000D03*
D18*
%TO.P,U1,32,GPIO27_ADC1*%
%TO.N,unconnected-(U1-GPIO27_ADC1-Pad32)*%
X66040000Y-76200000D03*
D19*
X66940000Y-76200000D03*
D20*
%TO.P,U1,33,AGND*%
%TO.N,unconnected-(U1-AGND-Pad33)*%
X66040000Y-73660000D03*
D19*
X66940000Y-73660000D03*
D18*
%TO.P,U1,34,GPIO28_ADC2*%
%TO.N,unconnected-(U1-GPIO28_ADC2-Pad34)*%
X66040000Y-71120000D03*
D19*
X66940000Y-71120000D03*
D18*
%TO.P,U1,35,ADC_VREF*%
%TO.N,unconnected-(U1-ADC_VREF-Pad35)*%
X66040000Y-68580000D03*
D19*
X66940000Y-68580000D03*
D18*
%TO.P,U1,36,3V3*%
%TO.N,unconnected-(U1-3V3-Pad36)*%
X66040000Y-66040000D03*
D19*
X66940000Y-66040000D03*
D18*
%TO.P,U1,37,3V3_EN*%
%TO.N,unconnected-(U1-3V3_EN-Pad37)*%
X66040000Y-63500000D03*
D19*
X66940000Y-63500000D03*
D20*
%TO.P,U1,38,GND*%
%TO.N,GND*%
X66040000Y-60960000D03*
D19*
X66940000Y-60960000D03*
D18*
%TO.P,U1,39,VSYS*%
%TO.N,VCC*%
X66040000Y-58420000D03*
D19*
X66940000Y-58420000D03*
D18*
%TO.P,U1,40,VBUS*%
%TO.N,unconnected-(U1-VBUS-Pad40)*%
X66040000Y-55880000D03*
D19*
X66940000Y-55880000D03*
D18*
%TO.P,U1,41,SWCLK*%
%TO.N,unconnected-(U1-SWCLK-Pad41)*%
X54610000Y-103910000D03*
D21*
X54610000Y-104810000D03*
D20*
%TO.P,U1,42,GND*%
%TO.N,GND*%
X57150000Y-103910000D03*
D21*
X57150000Y-104810000D03*
D18*
%TO.P,U1,43,SWDIO*%
%TO.N,unconnected-(U1-SWDIO-Pad43)*%
X59690000Y-103910000D03*
D21*
X59690000Y-104810000D03*
%TD*%
D22*
%TO.P,J1,1*%
%TO.N,VCC*%
X85440000Y-58800000D03*
D23*
%TO.P,J1,2*%
%TO.N,GND*%
X91440000Y-58800000D03*
D24*
%TO.P,J1,3*%
%TO.N,N/C*%
X88440000Y-54100000D03*
%TD*%
D20*
%TO.P,Electromagnet+,1,Pin_1*%
%TO.N,Net-(Electromagnet+1-Pin_1)*%
X106680000Y-114300000D03*
D18*
%TO.P,Electromagnet+,2,Pin_2*%
%TO.N,VCC*%
X109220000Y-114300000D03*
%TD*%
D12*
%TO.P,R2,1*%
%TO.N,RedLed*%
X76200000Y-99060000D03*
D13*
%TO.P,R2,2*%
%TO.N,Net-(RedLed+1-Pin_2)*%
X91440000Y-99060000D03*
%TD*%
D20*
%TO.P,GreenLed+,1,Pin_1*%
%TO.N,GND*%
X76200000Y-114300000D03*
D18*
%TO.P,GreenLed+,2,Pin_2*%
%TO.N,Net-(GreenLed+1-Pin_2)*%
X78740000Y-114300000D03*
%TD*%
D20*
%TO.P,RedLed+,1,Pin_1*%
%TO.N,GND*%
X91440000Y-114300000D03*
D18*
%TO.P,RedLed+,2,Pin_2*%
%TO.N,Net-(RedLed+1-Pin_2)*%
X93980000Y-114300000D03*
%TD*%
D25*
%TO.N,Buzzer*%
X76200000Y-83820000D02*
X71120000Y-88900000D01*
X86380000Y-76200000D02*
X86380000Y-81260000D01*
X71120000Y-88900000D02*
X66040000Y-88900000D01*
X83820000Y-83820000D02*
X76200000Y-83820000D01*
X86380000Y-81260000D02*
X83820000Y-83820000D01*
%TO.N,Net-(Electromagnet+1-Pin_1)*%
X106680000Y-111760000D02*
X101600000Y-106680000D01*
X101600000Y-106680000D02*
X101600000Y-93980000D01*
X106680000Y-114300000D02*
X106680000Y-111760000D01*
%TO.N,Net-(Q1-B)*%
X101600000Y-91440000D02*
X93980000Y-91440000D01*
%TO.N,VCC*%
X109220000Y-114300000D02*
X109220000Y-78740000D01*
X88900000Y-66040000D02*
X85440000Y-62580000D01*
X85060000Y-58420000D02*
X85440000Y-58800000D01*
X66040000Y-58420000D02*
X85060000Y-58420000D01*
X96520000Y-66040000D02*
X88900000Y-66040000D01*
X109220000Y-78740000D02*
X96520000Y-66040000D01*
X85440000Y-62580000D02*
X85440000Y-58800000D01*
%TO.N,Electromagnet*%
X78740000Y-91440000D02*
X66040000Y-91440000D01*
%TO.N,GreenLed*%
X73660000Y-106680000D02*
X73660000Y-101580000D01*
X73660000Y-101580000D02*
X68600000Y-96520000D01*
X68600000Y-96520000D02*
X66040000Y-96520000D01*
%TO.N,RedLed*%
X71120000Y-93980000D02*
X66040000Y-93980000D01*
X76200000Y-99060000D02*
X71120000Y-93980000D01*
%TO.N,Switch*%
X63500000Y-106680000D02*
X63500000Y-103380000D01*
X65280000Y-101600000D02*
X66040000Y-101600000D01*
X57240000Y-112940000D02*
X63500000Y-106680000D01*
X63500000Y-103380000D02*
X65280000Y-101600000D01*
X57240000Y-114300000D02*
X57240000Y-112940000D01*
%TO.N,Net-(GreenLed+1-Pin_2)*%
X78740000Y-114300000D02*
X81280000Y-111760000D01*
X88900000Y-109220000D02*
X88900000Y-106680000D01*
X86360000Y-111760000D02*
X88900000Y-109220000D01*
X81280000Y-111760000D02*
X86360000Y-111760000D01*
%TO.N,Net-(RedLed+1-Pin_2)*%
X93980000Y-101600000D02*
X91440000Y-99060000D01*
X93980000Y-114300000D02*
X93980000Y-101600000D01*
%TD*%
%TA.AperFunction,Conductor*%
%TO.N,GND*%
G36*
X114242539Y-45740185D02*
G01*
X114288294Y-45792989D01*
X114299500Y-45844500D01*
X114299500Y-126875500D01*
X114279815Y-126942539D01*
X114227011Y-126988294D01*
X114175500Y-126999500D01*
X38224500Y-126999500D01*
X38157461Y-126979815D01*
X38111706Y-126927011D01*
X38100500Y-126875500D01*
X38100500Y-114300004D01*
X48197628Y-114300004D01*
X48217087Y-114559677D01*
X48217088Y-114559682D01*
X48275033Y-114813559D01*
X48275039Y-114813578D01*
X48370177Y-115055987D01*
X48500387Y-115281516D01*
X48546768Y-115339677D01*
X48546769Y-115339677D01*
X49207258Y-114679187D01*
X49253130Y-114765710D01*
X49369302Y-114902478D01*
X49512160Y-115011076D01*
X49560234Y-115033317D01*
X48899826Y-115693724D01*
X49068813Y-115808937D01*
X49068822Y-115808942D01*
X49303437Y-115921926D01*
X49303435Y-115921926D01*
X49552277Y-115998684D01*
X49552283Y-115998685D01*
X49809786Y-116037499D01*
X49809793Y-116037500D01*
X50070207Y-116037500D01*
X50070213Y-116037499D01*
X50327716Y-115998685D01*
X50327722Y-115998684D01*
X50576563Y-115921926D01*
X50811177Y-115808942D01*
X50811179Y-115808941D01*
X50980172Y-115693724D01*
X50320393Y-115033946D01*
X50442213Y-114960650D01*
X50572492Y-114837243D01*
X50673196Y-114688716D01*
X50675780Y-114682228D01*
X51333229Y-115339677D01*
X51379615Y-115281511D01*
X51509822Y-115055987D01*
X51604960Y-114813578D01*
X51604966Y-114813559D01*
X51662911Y-114559682D01*
X51662912Y-114559677D01*
X51682372Y-114300004D01*
X55497127Y-114300004D01*
X55516591Y-114559752D01*
X55516592Y-114559757D01*
X55574554Y-114813707D01*
X55574560Y-114813726D01*
X55669726Y-115056204D01*
X55669725Y-115056204D01*
X55741302Y-115180178D01*
X55799971Y-115281795D01*
X55962384Y-115485455D01*
X55962389Y-115485459D01*
X55962392Y-115485463D01*
X56153333Y-115662631D01*
X56153334Y-115662631D01*
X56153336Y-115662633D01*
X56368564Y-115809372D01*
X56603257Y-115922395D01*
X56852174Y-115999176D01*
X56852175Y-115999176D01*
X56852178Y-115999177D01*
X57109747Y-116037999D01*
X57109752Y-116037999D01*
X57109755Y-116038000D01*
X57109756Y-116038000D01*
X57370244Y-116038000D01*
X57370245Y-116038000D01*
X57370252Y-116037999D01*
X57627821Y-115999177D01*
X57627822Y-115999176D01*
X57627826Y-115999176D01*
X57876743Y-115922395D01*
X58111437Y-115809372D01*
X58326664Y-115662633D01*
X58409934Y-115585370D01*
X64302000Y-115585370D01*
X64302001Y-115585376D01*
X64308408Y-115644983D01*
X64358702Y-115779828D01*
X64358706Y-115779835D01*
X64444952Y-115895044D01*
X64444955Y-115895047D01*
X64560164Y-115981293D01*
X64560171Y-115981297D01*
X64695017Y-116031591D01*
X64695016Y-116031591D01*
X64701944Y-116032335D01*
X64754627Y-116038000D01*
X67325372Y-116037999D01*
X67384983Y-116031591D01*
X67519831Y-115981296D01*
X67635046Y-115895046D01*
X67721296Y-115779831D01*
X67771591Y-115644983D01*
X67778000Y-115585373D01*
X67778000Y-115197844D01*
X74850000Y-115197844D01*
X74856401Y-115257372D01*
X74856403Y-115257379D01*
X74906645Y-115392086D01*
X74906649Y-115392093D01*
X74992809Y-115507187D01*
X74992812Y-115507190D01*
X75107906Y-115593350D01*
X75107913Y-115593354D01*
X75242620Y-115643596D01*
X75242627Y-115643598D01*
X75302155Y-115649999D01*
X75302172Y-115650000D01*
X75950000Y-115650000D01*
X75950000Y-114735501D01*
X76057685Y-114784680D01*
X76164237Y-114800000D01*
X76235763Y-114800000D01*
X76342315Y-114784680D01*
X76450000Y-114735501D01*
X76450000Y-115650000D01*
X77097828Y-115650000D01*
X77097844Y-115649999D01*
X77157372Y-115643598D01*
X77157379Y-115643596D01*
X77292086Y-115593354D01*
X77292093Y-115593350D01*
X77407187Y-115507190D01*
X77407190Y-115507187D01*
X77493350Y-115392093D01*
X77493354Y-115392086D01*
X77542422Y-115260529D01*
X77584293Y-115204595D01*
X77649757Y-115180178D01*
X77718030Y-115195030D01*
X77746285Y-115216181D01*
X77868599Y-115338495D01*
X77965384Y-115406265D01*
X78062165Y-115474032D01*
X78062167Y-115474033D01*
X78062170Y-115474035D01*
X78276337Y-115573903D01*
X78276343Y-115573904D01*
X78276344Y-115573905D01*
X78319133Y-115585370D01*
X78504592Y-115635063D01*
X78681034Y-115650500D01*
X78739999Y-115655659D01*
X78740000Y-115655659D01*
X78740001Y-115655659D01*
X78798966Y-115650500D01*
X78975408Y-115635063D01*
X79203663Y-115573903D01*
X79417830Y-115474035D01*
X79611401Y-115338495D01*
X79778495Y-115171401D01*
X79914035Y-114977830D01*
X80013903Y-114763663D01*
X80071636Y-114548196D01*
X80103727Y-114492613D01*
X81699523Y-112896819D01*
X81760846Y-112863334D01*
X81787204Y-112860500D01*
X86257763Y-112860500D01*
X86278326Y-112862216D01*
X86281134Y-112862689D01*
X86371614Y-112860535D01*
X86374564Y-112860500D01*
X86412417Y-112860500D01*
X86412425Y-112860500D01*
X86412433Y-112860499D01*
X86412437Y-112860499D01*
X86414748Y-112860278D01*
X86421079Y-112859673D01*
X86429900Y-112859147D01*
X86491245Y-112857687D01*
X86522648Y-112850854D01*
X86537208Y-112848583D01*
X86569218Y-112845528D01*
X86569221Y-112845527D01*
X86569222Y-112845527D01*
X86628082Y-112828243D01*
X86636645Y-112826056D01*
X86696612Y-112813013D01*
X86726165Y-112800356D01*
X86740024Y-112795374D01*
X86770875Y-112786316D01*
X86825408Y-112758201D01*
X86833403Y-112754434D01*
X86889812Y-112730279D01*
X86916435Y-112712258D01*
X86929095Y-112704747D01*
X86957682Y-112690011D01*
X87005921Y-112652073D01*
X87013054Y-112646864D01*
X87063865Y-112612477D01*
X87086602Y-112589738D01*
X87097615Y-112579964D01*
X87122886Y-112560092D01*
X87163066Y-112513720D01*
X87169085Y-112507255D01*
X89605879Y-110070461D01*
X89621631Y-110057138D01*
X89623952Y-110055486D01*
X89686444Y-109989944D01*
X89688422Y-109987918D01*
X89715241Y-109961101D01*
X89720783Y-109954387D01*
X89726634Y-109947794D01*
X89768986Y-109903378D01*
X89786363Y-109876337D01*
X89795055Y-109864432D01*
X89815523Y-109839645D01*
X89844932Y-109785784D01*
X89849432Y-109778200D01*
X89882613Y-109726572D01*
X89887557Y-109714219D01*
X89894561Y-109696727D01*
X89900848Y-109683382D01*
X89916247Y-109655183D01*
X89934940Y-109596702D01*
X89937909Y-109588444D01*
X89960725Y-109531457D01*
X89966807Y-109499899D01*
X89970452Y-109485613D01*
X89980242Y-109454992D01*
X89987527Y-109394057D01*
X89988882Y-109385359D01*
X90000500Y-109325085D01*
X90000500Y-109292938D01*
X90001377Y-109278218D01*
X90001582Y-109276496D01*
X90005192Y-109246309D01*
X90000816Y-109185121D01*
X90000500Y-109176276D01*
X90000500Y-108032739D01*
X90020185Y-107965700D01*
X90040159Y-107941840D01*
X90150050Y-107839877D01*
X90308959Y-107640612D01*
X90436393Y-107419888D01*
X90529508Y-107182637D01*
X90586222Y-106934157D01*
X90595433Y-106811243D01*
X90605268Y-106680004D01*
X90605268Y-106679995D01*
X90586222Y-106425845D01*
X90543766Y-106239834D01*
X90529508Y-106177363D01*
X90436393Y-105940112D01*
X90308959Y-105719388D01*
X90150050Y-105520123D01*
X89963217Y-105346768D01*
X89752634Y-105203195D01*
X89752630Y-105203193D01*
X89752627Y-105203191D01*
X89752626Y-105203190D01*
X89523006Y-105092612D01*
X89523008Y-105092612D01*
X89279466Y-105017489D01*
X89279462Y-105017488D01*
X89279458Y-105017487D01*
X89158231Y-104999214D01*
X89027440Y-104979500D01*
X89027435Y-104979500D01*
X88772565Y-104979500D01*
X88772559Y-104979500D01*
X88615609Y-105003157D01*
X88520542Y-105017487D01*
X88520539Y-105017488D01*
X88520533Y-105017489D01*
X88276992Y-105092612D01*
X88047373Y-105203190D01*
X88047372Y-105203191D01*
X87836782Y-105346768D01*
X87649952Y-105520121D01*
X87649950Y-105520123D01*
X87491041Y-105719388D01*
X87363608Y-105940109D01*
X87270492Y-106177362D01*
X87270490Y-106177369D01*
X87213777Y-106425845D01*
X87194732Y-106679995D01*
X87194732Y-106680004D01*
X87213777Y-106934154D01*
X87264579Y-107156734D01*
X87270492Y-107182637D01*
X87316415Y-107299647D01*
X87363608Y-107419890D01*
X87364307Y-107421101D01*
X87491041Y-107640612D01*
X87649950Y-107839877D01*
X87759841Y-107941840D01*
X87795596Y-108001868D01*
X87799500Y-108032739D01*
X87799500Y-108712796D01*
X87779815Y-108779835D01*
X87763181Y-108800477D01*
X85940477Y-110623181D01*
X85879154Y-110656666D01*
X85852796Y-110659500D01*
X81382238Y-110659500D01*
X81361673Y-110657783D01*
X81358869Y-110657311D01*
X81358866Y-110657311D01*
X81273825Y-110659335D01*
X81268386Y-110659465D01*
X81265436Y-110659500D01*
X81227575Y-110659500D01*
X81218905Y-110660327D01*
X81210091Y-110660852D01*
X81154765Y-110662169D01*
X81148755Y-110662313D01*
X81148754Y-110662313D01*
X81148746Y-110662314D01*
X81117352Y-110669144D01*
X81102793Y-110671415D01*
X81077398Y-110673840D01*
X81070780Y-110674472D01*
X81011901Y-110691759D01*
X81003332Y-110693946D01*
X80943392Y-110706986D01*
X80943385Y-110706989D01*
X80913831Y-110719643D01*
X80899967Y-110724626D01*
X80869128Y-110733682D01*
X80869121Y-110733685D01*
X80814587Y-110761798D01*
X80806586Y-110765568D01*
X80750184Y-110789722D01*
X80750180Y-110789724D01*
X80723570Y-110807734D01*
X80710894Y-110815256D01*
X80682316Y-110829990D01*
X80682313Y-110829991D01*
X80634091Y-110867914D01*
X80626944Y-110873133D01*
X80576140Y-110907518D01*
X80576129Y-110907527D01*
X80553399Y-110930256D01*
X80542380Y-110940037D01*
X80517113Y-110959908D01*
X80476931Y-111006279D01*
X80470902Y-111012754D01*
X78547386Y-112936270D01*
X78491799Y-112968364D01*
X78276341Y-113026095D01*
X78276337Y-113026097D01*
X78266721Y-113030581D01*
X78062171Y-113125964D01*
X78062169Y-113125965D01*
X77868600Y-113261503D01*
X77746284Y-113383819D01*
X77684961Y-113417303D01*
X77615269Y-113412319D01*
X77559336Y-113370447D01*
X77542421Y-113339470D01*
X77493354Y-113207913D01*
X77493350Y-113207906D01*
X77407190Y-113092812D01*
X77407187Y-113092809D01*
X77292093Y-113006649D01*
X77292086Y-113006645D01*
X77157379Y-112956403D01*
X77157372Y-112956401D01*
X77097844Y-112950000D01*
X76450000Y-112950000D01*
X76450000Y-113864498D01*
X76342315Y-113815320D01*
X76235763Y-113800000D01*
X76164237Y-113800000D01*
X76057685Y-113815320D01*
X75950000Y-113864498D01*
X75950000Y-112950000D01*
X75302155Y-112950000D01*
X75242627Y-112956401D01*
X75242620Y-112956403D01*
X75107913Y-113006645D01*
X75107906Y-113006649D01*
X74992812Y-113092809D01*
X74992809Y-113092812D01*
X74906649Y-113207906D01*
X74906645Y-113207913D01*
X74856403Y-113342620D01*
X74856401Y-113342627D01*
X74850000Y-113402155D01*
X74850000Y-114050000D01*
X75766314Y-114050000D01*
X75740507Y-114090156D01*
X75700000Y-114228111D01*
X75700000Y-114371889D01*
X75740507Y-114509844D01*
X75766314Y-114550000D01*
X74850000Y-114550000D01*
X74850000Y-115197844D01*
X67778000Y-115197844D01*
X67777999Y-113014628D01*
X67771591Y-112955017D01*
X67770471Y-112952015D01*
X67721297Y-112820171D01*
X67721293Y-112820164D01*
X67635047Y-112704955D01*
X67635044Y-112704952D01*
X67519835Y-112618706D01*
X67519828Y-112618702D01*
X67384982Y-112568408D01*
X67384983Y-112568408D01*
X67325383Y-112562001D01*
X67325381Y-112562000D01*
X67325373Y-112562000D01*
X67325364Y-112562000D01*
X64754629Y-112562000D01*
X64754623Y-112562001D01*
X64695016Y-112568408D01*
X64560171Y-112618702D01*
X64560164Y-112618706D01*
X64444955Y-112704952D01*
X64444952Y-112704955D01*
X64358706Y-112820164D01*
X64358702Y-112820171D01*
X64308408Y-112955017D01*
X64302248Y-113012319D01*
X64302001Y-113014623D01*
X64302000Y-113014635D01*
X64302000Y-115585370D01*
X58409934Y-115585370D01*
X58517616Y-115485455D01*
X58680029Y-115281795D01*
X58810274Y-115056204D01*
X58905442Y-114813721D01*
X58963407Y-114559762D01*
X58963413Y-114559682D01*
X58982873Y-114300004D01*
X58982873Y-114299995D01*
X58963408Y-114040247D01*
X58963407Y-114040242D01*
X58963407Y-114040238D01*
X58905442Y-113786279D01*
X58810274Y-113543796D01*
X58810273Y-113543795D01*
X58810274Y-113543795D01*
X58737243Y-113417303D01*
X58680029Y-113318205D01*
X58632926Y-113259140D01*
X58606518Y-113194454D01*
X58619275Y-113125758D01*
X58642190Y-113094150D01*
X64205879Y-107530461D01*
X64221631Y-107517138D01*
X64223952Y-107515486D01*
X64286444Y-107449944D01*
X64288422Y-107447918D01*
X64315241Y-107421101D01*
X64320783Y-107414387D01*
X64326634Y-107407794D01*
X64368986Y-107363378D01*
X64377399Y-107350286D01*
X64386362Y-107336341D01*
X64395060Y-107324429D01*
X64415522Y-107299647D01*
X64415524Y-107299645D01*
X64444927Y-107245796D01*
X64449445Y-107238181D01*
X64467676Y-107209813D01*
X64482613Y-107186572D01*
X64494558Y-107156732D01*
X64500840Y-107143397D01*
X64516248Y-107115182D01*
X64534937Y-107056716D01*
X64537917Y-107048425D01*
X64560725Y-106991457D01*
X64566809Y-106959885D01*
X64570451Y-106945617D01*
X64580242Y-106914992D01*
X64587527Y-106854057D01*
X64588882Y-106845359D01*
X64600500Y-106785085D01*
X64600500Y-106752938D01*
X64601377Y-106738218D01*
X64602070Y-106732418D01*
X64605192Y-106706309D01*
X64600816Y-106645116D01*
X64600500Y-106636272D01*
X64600500Y-105410251D01*
X64620185Y-105343212D01*
X64672989Y-105297457D01*
X64742147Y-105287513D01*
X64805703Y-105316538D01*
X64823764Y-105335937D01*
X64829210Y-105343212D01*
X64832455Y-105347547D01*
X64947664Y-105433793D01*
X64947671Y-105433797D01*
X65082517Y-105484091D01*
X65082516Y-105484091D01*
X65089444Y-105484835D01*
X65142127Y-105490500D01*
X65975616Y-105490499D01*
X65986425Y-105490971D01*
X66040000Y-105495659D01*
X66093575Y-105490971D01*
X66104384Y-105490499D01*
X68737871Y-105490499D01*
X68737872Y-105490499D01*
X68797483Y-105484091D01*
X68932331Y-105433796D01*
X69047546Y-105347546D01*
X69133796Y-105232331D01*
X69184091Y-105097483D01*
X69190500Y-105037873D01*
X69190499Y-103242128D01*
X69184091Y-103182517D01*
X69170101Y-103145009D01*
X69133797Y-103047671D01*
X69133795Y-103047668D01*
X69107195Y-103012135D01*
X69056421Y-102944309D01*
X69032004Y-102878848D01*
X69046855Y-102810575D01*
X69056416Y-102795696D01*
X69133796Y-102692331D01*
X69184091Y-102557483D01*
X69190500Y-102497873D01*
X69190499Y-100702128D01*
X69184091Y-100642517D01*
X69180783Y-100633649D01*
X69133797Y-100507671D01*
X69133795Y-100507668D01*
X69056421Y-100404309D01*
X69032004Y-100338848D01*
X69046855Y-100270575D01*
X69056416Y-100255696D01*
X69133796Y-100152331D01*
X69184091Y-100017483D01*
X69190500Y-99957873D01*
X69190499Y-98966202D01*
X69210183Y-98899164D01*
X69262987Y-98853409D01*
X69332146Y-98843465D01*
X69395702Y-98872490D01*
X69402180Y-98878522D01*
X72523181Y-101999523D01*
X72556666Y-102060846D01*
X72559500Y-102087204D01*
X72559500Y-105327260D01*
X72539815Y-105394299D01*
X72519841Y-105418159D01*
X72409953Y-105520118D01*
X72251041Y-105719388D01*
X72123608Y-105940109D01*
X72030492Y-106177362D01*
X72030490Y-106177369D01*
X71973777Y-106425845D01*
X71954732Y-106679995D01*
X71954732Y-106680004D01*
X71973777Y-106934154D01*
X72024579Y-107156734D01*
X72030492Y-107182637D01*
X72076415Y-107299647D01*
X72123608Y-107419890D01*
X72124307Y-107421101D01*
X72251041Y-107640612D01*
X72409950Y-107839877D01*
X72596783Y-108013232D01*
X72807366Y-108156805D01*
X72807371Y-108156807D01*
X72807372Y-108156808D01*
X72807373Y-108156809D01*
X72929328Y-108215538D01*
X73036992Y-108267387D01*
X73036993Y-108267387D01*
X73036996Y-108267389D01*
X73280542Y-108342513D01*
X73532565Y-108380500D01*
X73787435Y-108380500D01*
X74039458Y-108342513D01*
X74283004Y-108267389D01*
X74512634Y-108156805D01*
X74723217Y-108013232D01*
X74910050Y-107839877D01*
X75068959Y-107640612D01*
X75196393Y-107419888D01*
X75289508Y-107182637D01*
X75346222Y-106934157D01*
X75355433Y-106811243D01*
X75365268Y-106680004D01*
X75365268Y-106679995D01*
X75346222Y-106425845D01*
X75303766Y-106239834D01*
X75289508Y-106177363D01*
X75196393Y-105940112D01*
X75068959Y-105719388D01*
X74910050Y-105520123D01*
X74910048Y-105520121D01*
X74910046Y-105520118D01*
X74800159Y-105418159D01*
X74764404Y-105358131D01*
X74760500Y-105327260D01*
X74760500Y-101682238D01*
X74762218Y-101661671D01*
X74762511Y-101659920D01*
X74762689Y-101658867D01*
X74760535Y-101568386D01*
X74760500Y-101565436D01*
X74760500Y-101527584D01*
X74760500Y-101527575D01*
X74759673Y-101518920D01*
X74759147Y-101510099D01*
X74757687Y-101448756D01*
X74750855Y-101417354D01*
X74748583Y-101402791D01*
X74745528Y-101370782D01*
X74728243Y-101311916D01*
X74726054Y-101303342D01*
X74713013Y-101243388D01*
X74700356Y-101213832D01*
X74695373Y-101199971D01*
X74686316Y-101169125D01*
X74658191Y-101114571D01*
X74654432Y-101106592D01*
X74630279Y-101050188D01*
X74612258Y-101023563D01*
X74604748Y-101010904D01*
X74590011Y-100982318D01*
X74552073Y-100934077D01*
X74546858Y-100926934D01*
X74512480Y-100876139D01*
X74512478Y-100876136D01*
X74489748Y-100853406D01*
X74479958Y-100842376D01*
X74475818Y-100837112D01*
X74460092Y-100817114D01*
X74440235Y-100799908D01*
X74413721Y-100776933D01*
X74407243Y-100770901D01*
X69450466Y-95814124D01*
X69437137Y-95798366D01*
X69435488Y-95796050D01*
X69435480Y-95796041D01*
X69369968Y-95733576D01*
X69367856Y-95731514D01*
X69341096Y-95704754D01*
X69334385Y-95699213D01*
X69327774Y-95693345D01*
X69283378Y-95651014D01*
X69283375Y-95651012D01*
X69283371Y-95651009D01*
X69256347Y-95633641D01*
X69244441Y-95624948D01*
X69216507Y-95601885D01*
X69179272Y-95549597D01*
X69133797Y-95427671D01*
X69133795Y-95427668D01*
X69056421Y-95324309D01*
X69032004Y-95258848D01*
X69046855Y-95190575D01*
X69056422Y-95175689D01*
X69071585Y-95155433D01*
X69090486Y-95130187D01*
X69146421Y-95088317D01*
X69189751Y-95080500D01*
X70612796Y-95080500D01*
X70679835Y-95100185D01*
X70700477Y-95116819D01*
X74464891Y-98881233D01*
X74498376Y-98942556D01*
X74500863Y-98978180D01*
X74494732Y-99059995D01*
X74494732Y-99060004D01*
X74513777Y-99314154D01*
X74568605Y-99554373D01*
X74570492Y-99562637D01*
X74663607Y-99799888D01*
X74791041Y-100020612D01*
X74949950Y-100219877D01*
X75136783Y-100393232D01*
X75347366Y-100536805D01*
X75347371Y-100536807D01*
X75347372Y-100536808D01*
X75347373Y-100536809D01*
X75469328Y-100595538D01*
X75576992Y-100647387D01*
X75576993Y-100647387D01*
X75576996Y-100647389D01*
X75820542Y-100722513D01*
X76072565Y-100760500D01*
X76327435Y-100760500D01*
X76579458Y-100722513D01*
X76823004Y-100647389D01*
X77052634Y-100536805D01*
X77263217Y-100393232D01*
X77450050Y-100219877D01*
X77608959Y-100020612D01*
X77736393Y-99799888D01*
X77829508Y-99562637D01*
X77886222Y-99314157D01*
X77905268Y-99060004D01*
X89734732Y-99060004D01*
X89753777Y-99314154D01*
X89808605Y-99554373D01*
X89810492Y-99562637D01*
X89903607Y-99799888D01*
X90031041Y-100020612D01*
X90189950Y-100219877D01*
X90376783Y-100393232D01*
X90587366Y-100536805D01*
X90587371Y-100536807D01*
X90587372Y-100536808D01*
X90587373Y-100536809D01*
X90709328Y-100595538D01*
X90816992Y-100647387D01*
X90816993Y-100647387D01*
X90816996Y-100647389D01*
X91060542Y-100722513D01*
X91312565Y-100760500D01*
X91532796Y-100760500D01*
X91599835Y-100780185D01*
X91620477Y-100796819D01*
X92843181Y-102019523D01*
X92876666Y-102080846D01*
X92879500Y-102107204D01*
X92879500Y-113030581D01*
X92859815Y-113097620D01*
X92807011Y-113143375D01*
X92737853Y-113153319D01*
X92674297Y-113124294D01*
X92656235Y-113104895D01*
X92647186Y-113092809D01*
X92532093Y-113006649D01*
X92532086Y-113006645D01*
X92397379Y-112956403D01*
X92397372Y-112956401D01*
X92337844Y-112950000D01*
X91690000Y-112950000D01*
X91690000Y-113864498D01*
X91582315Y-113815320D01*
X91475763Y-113800000D01*
X91404237Y-113800000D01*
X91297685Y-113815320D01*
X91190000Y-113864498D01*
X91190000Y-112950000D01*
X90542155Y-112950000D01*
X90482627Y-112956401D01*
X90482620Y-112956403D01*
X90347913Y-113006645D01*
X90347906Y-113006649D01*
X90232812Y-113092809D01*
X90232809Y-113092812D01*
X90146649Y-113207906D01*
X90146645Y-113207913D01*
X90096403Y-113342620D01*
X90096401Y-113342627D01*
X90090000Y-113402155D01*
X90090000Y-114050000D01*
X91006314Y-114050000D01*
X90980507Y-114090156D01*
X90940000Y-114228111D01*
X90940000Y-114371889D01*
X90980507Y-114509844D01*
X91006314Y-114550000D01*
X90090000Y-114550000D01*
X90090000Y-115197844D01*
X90096401Y-115257372D01*
X90096403Y-115257379D01*
X90146645Y-115392086D01*
X90146649Y-115392093D01*
X90232809Y-115507187D01*
X90232812Y-115507190D01*
X90347906Y-115593350D01*
X90347913Y-115593354D01*
X90482620Y-115643596D01*
X90482627Y-115643598D01*
X90542155Y-115649999D01*
X90542172Y-115650000D01*
X91190000Y-115650000D01*
X91190000Y-114735501D01*
X91297685Y-114784680D01*
X91404237Y-114800000D01*
X91475763Y-114800000D01*
X91582315Y-114784680D01*
X91690000Y-114735501D01*
X91690000Y-115650000D01*
X92337828Y-115650000D01*
X92337844Y-115649999D01*
X92397372Y-115643598D01*
X92397379Y-115643596D01*
X92532086Y-115593354D01*
X92532093Y-115593350D01*
X92647187Y-115507190D01*
X92647190Y-115507187D01*
X92733350Y-115392093D01*
X92733354Y-115392086D01*
X92782422Y-115260529D01*
X92824293Y-115204595D01*
X92889757Y-115180178D01*
X92958030Y-115195030D01*
X92986285Y-115216181D01*
X93108599Y-115338495D01*
X93205384Y-115406265D01*
X93302165Y-115474032D01*
X93302167Y-115474033D01*
X93302170Y-115474035D01*
X93516337Y-115573903D01*
X93516343Y-115573904D01*
X93516344Y-115573905D01*
X93559133Y-115585370D01*
X93744592Y-115635063D01*
X93921034Y-115650500D01*
X93979999Y-115655659D01*
X93980000Y-115655659D01*
X93980001Y-115655659D01*
X94038966Y-115650500D01*
X94215408Y-115635063D01*
X94443663Y-115573903D01*
X94657830Y-115474035D01*
X94851401Y-115338495D01*
X95018495Y-115171401D01*
X95154035Y-114977830D01*
X95253903Y-114763663D01*
X95315063Y-114535408D01*
X95335659Y-114300000D01*
X95315063Y-114064592D01*
X95253903Y-113836337D01*
X95154035Y-113622171D01*
X95102924Y-113549176D01*
X95080597Y-113482970D01*
X95080500Y-113478054D01*
X95080500Y-101702237D01*
X95082218Y-101681670D01*
X95082687Y-101678876D01*
X95082689Y-101678866D01*
X95080535Y-101588385D01*
X95080500Y-101585435D01*
X95080500Y-101547584D01*
X95080500Y-101547575D01*
X95079673Y-101538920D01*
X95079147Y-101530099D01*
X95077687Y-101468755D01*
X95070855Y-101437353D01*
X95068583Y-101422788D01*
X95065528Y-101390782D01*
X95048237Y-101331897D01*
X95046055Y-101323349D01*
X95033012Y-101263388D01*
X95020355Y-101233832D01*
X95015375Y-101219977D01*
X95006316Y-101189125D01*
X94978202Y-101134591D01*
X94974435Y-101126599D01*
X94950279Y-101070187D01*
X94932262Y-101043567D01*
X94924743Y-101030895D01*
X94910011Y-101002318D01*
X94872070Y-100954073D01*
X94866858Y-100946934D01*
X94855808Y-100930608D01*
X94832477Y-100896135D01*
X94809748Y-100873406D01*
X94799958Y-100862376D01*
X94780092Y-100837114D01*
X94780090Y-100837112D01*
X94733721Y-100796933D01*
X94727243Y-100790901D01*
X93175108Y-99238766D01*
X93141623Y-99177443D01*
X93139136Y-99141817D01*
X93139773Y-99133327D01*
X93145268Y-99060000D01*
X93126222Y-98805843D01*
X93069508Y-98557363D01*
X92976393Y-98320112D01*
X92848959Y-98099388D01*
X92690050Y-97900123D01*
X92503217Y-97726768D01*
X92292634Y-97583195D01*
X92292630Y-97583193D01*
X92292627Y-97583191D01*
X92292626Y-97583190D01*
X92063006Y-97472612D01*
X92063008Y-97472612D01*
X91819466Y-97397489D01*
X91819462Y-97397488D01*
X91819458Y-97397487D01*
X91698231Y-97379214D01*
X91567440Y-97359500D01*
X91567435Y-97359500D01*
X91312565Y-97359500D01*
X91312559Y-97359500D01*
X91155609Y-97383157D01*
X91060542Y-97397487D01*
X91060539Y-97397488D01*
X91060533Y-97397489D01*
X90816992Y-97472612D01*
X90587373Y-97583190D01*
X90587372Y-97583191D01*
X90376782Y-97726768D01*
X90189952Y-97900121D01*
X90189950Y-97900123D01*
X90031041Y-98099388D01*
X89903608Y-98320109D01*
X89810492Y-98557362D01*
X89810490Y-98557369D01*
X89753777Y-98805845D01*
X89734732Y-99059995D01*
X89734732Y-99060004D01*
X77905268Y-99060004D01*
X77905268Y-99060000D01*
X77886222Y-98805843D01*
X77829508Y-98557363D01*
X77736393Y-98320112D01*
X77608959Y-98099388D01*
X77450050Y-97900123D01*
X77263217Y-97726768D01*
X77052634Y-97583195D01*
X77052630Y-97583193D01*
X77052627Y-97583191D01*
X77052626Y-97583190D01*
X76823006Y-97472612D01*
X76823008Y-97472612D01*
X76579466Y-97397489D01*
X76579462Y-97397488D01*
X76579458Y-97397487D01*
X76458231Y-97379214D01*
X76327440Y-97359500D01*
X76327435Y-97359500D01*
X76107204Y-97359500D01*
X76040165Y-97339815D01*
X76019523Y-97323181D01*
X71970466Y-93274124D01*
X71957137Y-93258366D01*
X71955488Y-93256050D01*
X71955480Y-93256041D01*
X71889968Y-93193576D01*
X71887856Y-93191514D01*
X71861096Y-93164754D01*
X71854385Y-93159213D01*
X71847774Y-93153345D01*
X71803378Y-93111014D01*
X71803375Y-93111012D01*
X71803371Y-93111009D01*
X71776347Y-93093641D01*
X71764441Y-93084948D01*
X71739648Y-93064478D01*
X71739643Y-93064475D01*
X71685779Y-93035063D01*
X71678177Y-93030552D01*
X71673252Y-93027387D01*
X71665675Y-93022517D01*
X71626576Y-92997388D01*
X71596731Y-92985440D01*
X71583392Y-92979155D01*
X71555184Y-92963752D01*
X71496732Y-92945066D01*
X71488406Y-92942073D01*
X71449329Y-92926429D01*
X71431457Y-92919275D01*
X71431456Y-92919274D01*
X71431454Y-92919274D01*
X71431453Y-92919273D01*
X71399894Y-92913190D01*
X71385611Y-92909545D01*
X71354991Y-92899757D01*
X71294064Y-92892472D01*
X71285322Y-92891109D01*
X71278377Y-92889770D01*
X71225085Y-92879500D01*
X71225082Y-92879500D01*
X71192938Y-92879500D01*
X71178218Y-92878623D01*
X71146309Y-92874808D01*
X71092964Y-92878623D01*
X71085119Y-92879184D01*
X71076274Y-92879500D01*
X69189751Y-92879500D01*
X69122712Y-92859815D01*
X69090485Y-92829812D01*
X69056423Y-92784312D01*
X69032005Y-92718848D01*
X69046856Y-92650575D01*
X69056423Y-92635688D01*
X69090485Y-92590188D01*
X69146419Y-92548318D01*
X69189751Y-92540500D01*
X77382883Y-92540500D01*
X77449922Y-92560185D01*
X77479830Y-92587187D01*
X77489950Y-92599877D01*
X77676783Y-92773232D01*
X77887366Y-92916805D01*
X77887371Y-92916807D01*
X77887372Y-92916808D01*
X77887373Y-92916809D01*
X77984852Y-92963752D01*
X78116992Y-93027387D01*
X78116993Y-93027387D01*
X78116996Y-93027389D01*
X78360542Y-93102513D01*
X78612565Y-93140500D01*
X78867435Y-93140500D01*
X79119458Y-93102513D01*
X79363004Y-93027389D01*
X79592634Y-92916805D01*
X79803217Y-92773232D01*
X79990050Y-92599877D01*
X80148959Y-92400612D01*
X80276393Y-92179888D01*
X80369508Y-91942637D01*
X80426222Y-91694157D01*
X80445268Y-91440000D01*
X80426222Y-91185843D01*
X80369508Y-90937363D01*
X80276393Y-90700112D01*
X80148959Y-90479388D01*
X79990050Y-90280123D01*
X79803217Y-90106768D01*
X79592634Y-89963195D01*
X79592630Y-89963193D01*
X79592627Y-89963191D01*
X79592626Y-89963190D01*
X79363006Y-89852612D01*
X79363008Y-89852612D01*
X79119466Y-89777489D01*
X79119462Y-89777488D01*
X79119458Y-89777487D01*
X78998231Y-89759214D01*
X78867440Y-89739500D01*
X78867435Y-89739500D01*
X78612565Y-89739500D01*
X78612559Y-89739500D01*
X78455609Y-89763157D01*
X78360542Y-89777487D01*
X78360539Y-89777488D01*
X78360533Y-89777489D01*
X78116992Y-89852612D01*
X77887373Y-89963190D01*
X77887372Y-89963191D01*
X77887366Y-89963194D01*
X77887366Y-89963195D01*
X77879962Y-89968243D01*
X77676782Y-90106768D01*
X77489948Y-90280124D01*
X77479831Y-90292812D01*
X77422642Y-90332953D01*
X77382883Y-90339500D01*
X69189751Y-90339500D01*
X69122712Y-90319815D01*
X69090485Y-90289812D01*
X69056423Y-90244312D01*
X69032005Y-90178848D01*
X69046856Y-90110575D01*
X69056423Y-90095688D01*
X69090485Y-90050188D01*
X69146419Y-90008318D01*
X69189751Y-90000500D01*
X71017763Y-90000500D01*
X71038326Y-90002216D01*
X71041134Y-90002689D01*
X71131614Y-90000535D01*
X71134564Y-90000500D01*
X71172417Y-90000500D01*
X71172425Y-90000500D01*
X71172433Y-90000499D01*
X71172437Y-90000499D01*
X71174748Y-90000278D01*
X71181079Y-89999673D01*
X71189900Y-89999147D01*
X71251245Y-89997687D01*
X71282648Y-89990854D01*
X71297208Y-89988583D01*
X71329218Y-89985528D01*
X71329221Y-89985527D01*
X71329222Y-89985527D01*
X71388082Y-89968243D01*
X71396645Y-89966056D01*
X71456612Y-89953013D01*
X71486165Y-89940356D01*
X71500024Y-89935374D01*
X71530875Y-89926316D01*
X71585408Y-89898201D01*
X71593403Y-89894434D01*
X71649812Y-89870279D01*
X71676435Y-89852258D01*
X71689095Y-89844747D01*
X71717682Y-89830011D01*
X71765921Y-89792073D01*
X71773054Y-89786864D01*
X71823865Y-89752477D01*
X71846602Y-89729738D01*
X71857615Y-89719964D01*
X71882886Y-89700092D01*
X71923066Y-89653720D01*
X71929085Y-89647255D01*
X76619523Y-84956819D01*
X76680846Y-84923334D01*
X76707204Y-84920500D01*
X83717763Y-84920500D01*
X83738326Y-84922216D01*
X83741134Y-84922689D01*
X83831614Y-84920535D01*
X83834564Y-84920500D01*
X83872417Y-84920500D01*
X83872425Y-84920500D01*
X83872433Y-84920499D01*
X83872437Y-84920499D01*
X83874748Y-84920278D01*
X83881079Y-84919673D01*
X83889900Y-84919147D01*
X83951245Y-84917687D01*
X83982648Y-84910854D01*
X83997208Y-84908583D01*
X84029218Y-84905528D01*
X84029221Y-84905527D01*
X84029222Y-84905527D01*
X84088082Y-84888243D01*
X84096645Y-84886056D01*
X84156612Y-84873013D01*
X84186165Y-84860356D01*
X84200024Y-84855374D01*
X84230875Y-84846316D01*
X84285408Y-84818201D01*
X84293403Y-84814434D01*
X84349812Y-84790279D01*
X84376435Y-84772258D01*
X84389095Y-84764747D01*
X84417682Y-84750011D01*
X84465921Y-84712073D01*
X84473054Y-84706864D01*
X84523865Y-84672477D01*
X84546602Y-84649738D01*
X84557615Y-84639964D01*
X84582886Y-84620092D01*
X84623066Y-84573720D01*
X84629085Y-84567255D01*
X87085879Y-82110461D01*
X87101631Y-82097138D01*
X87103952Y-82095486D01*
X87166444Y-82029944D01*
X87168422Y-82027918D01*
X87195241Y-82001101D01*
X87200783Y-81994387D01*
X87206634Y-81987794D01*
X87248986Y-81943378D01*
X87257399Y-81930286D01*
X87266362Y-81916341D01*
X87275060Y-81904429D01*
X87295522Y-81879647D01*
X87295524Y-81879645D01*
X87324927Y-81825796D01*
X87329445Y-81818181D01*
X87329970Y-81817362D01*
X87362613Y-81766572D01*
X87374558Y-81736732D01*
X87380840Y-81723397D01*
X87396248Y-81695182D01*
X87414937Y-81636716D01*
X87417917Y-81628425D01*
X87440725Y-81571457D01*
X87446809Y-81539885D01*
X87450451Y-81525617D01*
X87460242Y-81494992D01*
X87467524Y-81434073D01*
X87468885Y-81425339D01*
X87480500Y-81365085D01*
X87480500Y-81332944D01*
X87481377Y-81318223D01*
X87485193Y-81286308D01*
X87480816Y-81225106D01*
X87480500Y-81216261D01*
X87480500Y-77782790D01*
X87500185Y-77715751D01*
X87552989Y-77669996D01*
X87561146Y-77666616D01*
X87622331Y-77643796D01*
X87737546Y-77557546D01*
X87823796Y-77442331D01*
X87874091Y-77307483D01*
X87880500Y-77247873D01*
X87880500Y-76200005D01*
X92474859Y-76200005D01*
X92495385Y-76447729D01*
X92495387Y-76447738D01*
X92556412Y-76688717D01*
X92656266Y-76916364D01*
X92756564Y-77069882D01*
X93496923Y-76329523D01*
X93520507Y-76409844D01*
X93598239Y-76530798D01*
X93706900Y-76624952D01*
X93837685Y-76684680D01*
X93847466Y-76686086D01*
X93109942Y-77423609D01*
X93156768Y-77460055D01*
X93156770Y-77460056D01*
X93375385Y-77578364D01*
X93375396Y-77578369D01*
X93610506Y-77659083D01*
X93855707Y-77700000D01*
X94104293Y-77700000D01*
X94349493Y-77659083D01*
X94584603Y-77578369D01*
X94584614Y-77578364D01*
X94803228Y-77460057D01*
X94803231Y-77460055D01*
X94850056Y-77423609D01*
X94112533Y-76686086D01*
X94122315Y-76684680D01*
X94253100Y-76624952D01*
X94361761Y-76530798D01*
X94439493Y-76409844D01*
X94463076Y-76329524D01*
X95203434Y-77069882D01*
X95303731Y-76916369D01*
X95403587Y-76688717D01*
X95464612Y-76447738D01*
X95464614Y-76447729D01*
X95485141Y-76200005D01*
X95485141Y-76199994D01*
X95464614Y-75952270D01*
X95464612Y-75952261D01*
X95403587Y-75711282D01*
X95303731Y-75483630D01*
X95203434Y-75330116D01*
X94463076Y-76070475D01*
X94439493Y-75990156D01*
X94361761Y-75869202D01*
X94253100Y-75775048D01*
X94122315Y-75715320D01*
X94112534Y-75713913D01*
X94850057Y-74976390D01*
X94850056Y-74976389D01*
X94803229Y-74939943D01*
X94584614Y-74821635D01*
X94584603Y-74821630D01*
X94349493Y-74740916D01*
X94104293Y-74700000D01*
X93855707Y-74700000D01*
X93610506Y-74740916D01*
X93375396Y-74821630D01*
X93375390Y-74821632D01*
X93156761Y-74939949D01*
X93109942Y-74976388D01*
X93109942Y-74976390D01*
X93847466Y-75713913D01*
X93837685Y-75715320D01*
X93706900Y-75775048D01*
X93598239Y-75869202D01*
X93520507Y-75990156D01*
X93496923Y-76070475D01*
X92756564Y-75330116D01*
X92656267Y-75483632D01*
X92556412Y-75711282D01*
X92495387Y-75952261D01*
X92495385Y-75952270D01*
X92474859Y-76199994D01*
X92474859Y-76200005D01*
X87880500Y-76200005D01*
X87880499Y-75152128D01*
X87874091Y-75092517D01*
X87841192Y-75004311D01*
X87823797Y-74957671D01*
X87823793Y-74957664D01*
X87737547Y-74842455D01*
X87737544Y-74842452D01*
X87622335Y-74756206D01*
X87622328Y-74756202D01*
X87487482Y-74705908D01*
X87487483Y-74705908D01*
X87427883Y-74699501D01*
X87427881Y-74699500D01*
X87427873Y-74699500D01*
X87427864Y-74699500D01*
X85332129Y-74699500D01*
X85332123Y-74699501D01*
X85272516Y-74705908D01*
X85137671Y-74756202D01*
X85137664Y-74756206D01*
X85022455Y-74842452D01*
X85022452Y-74842455D01*
X84936206Y-74957664D01*
X84936202Y-74957671D01*
X84885908Y-75092517D01*
X84879501Y-75152116D01*
X84879501Y-75152123D01*
X84879500Y-75152135D01*
X84879500Y-77247870D01*
X84879501Y-77247876D01*
X84885908Y-77307483D01*
X84936202Y-77442328D01*
X84936206Y-77442335D01*
X85022452Y-77557544D01*
X85022455Y-77557547D01*
X85137664Y-77643793D01*
X85137669Y-77643796D01*
X85198833Y-77666608D01*
X85254766Y-77708478D01*
X85279184Y-77773942D01*
X85279500Y-77782790D01*
X85279500Y-80752796D01*
X85259815Y-80819835D01*
X85243181Y-80840477D01*
X83400477Y-82683181D01*
X83339154Y-82716666D01*
X83312796Y-82719500D01*
X76302238Y-82719500D01*
X76281674Y-82717783D01*
X76280746Y-82717626D01*
X76278869Y-82717311D01*
X76278867Y-82717311D01*
X76196307Y-82719276D01*
X76188387Y-82719465D01*
X76185437Y-82719500D01*
X76147575Y-82719500D01*
X76138905Y-82720327D01*
X76130091Y-82720852D01*
X76068750Y-82722313D01*
X76037340Y-82729145D01*
X76022776Y-82731416D01*
X75990787Y-82734471D01*
X75990784Y-82734471D01*
X75990782Y-82734472D01*
X75958929Y-82743824D01*
X75931916Y-82751756D01*
X75923342Y-82753944D01*
X75863394Y-82766985D01*
X75863376Y-82766990D01*
X75833828Y-82779643D01*
X75819959Y-82784629D01*
X75789125Y-82793684D01*
X75789120Y-82793686D01*
X75789119Y-82793687D01*
X75734592Y-82821796D01*
X75726591Y-82825566D01*
X75670191Y-82849719D01*
X75643576Y-82867732D01*
X75630899Y-82875253D01*
X75602321Y-82889986D01*
X75554094Y-82927913D01*
X75546947Y-82933131D01*
X75496135Y-82967522D01*
X75496132Y-82967524D01*
X75473399Y-82990256D01*
X75462380Y-83000037D01*
X75437113Y-83019908D01*
X75396931Y-83066279D01*
X75390902Y-83072754D01*
X70700477Y-87763181D01*
X70639154Y-87796666D01*
X70612796Y-87799500D01*
X69189751Y-87799500D01*
X69122712Y-87779815D01*
X69090485Y-87749812D01*
X69056422Y-87704311D01*
X69032004Y-87638847D01*
X69046855Y-87570574D01*
X69056411Y-87555702D01*
X69133796Y-87452331D01*
X69184091Y-87317483D01*
X69190500Y-87257873D01*
X69190499Y-85462128D01*
X69184091Y-85402517D01*
X69133796Y-85267669D01*
X69056421Y-85164309D01*
X69032004Y-85098848D01*
X69046855Y-85030575D01*
X69056416Y-85015696D01*
X69133796Y-84912331D01*
X69184091Y-84777483D01*
X69190500Y-84717873D01*
X69190499Y-82922128D01*
X69184091Y-82862517D01*
X69179318Y-82849721D01*
X69133797Y-82727671D01*
X69133795Y-82727668D01*
X69129786Y-82722313D01*
X69056421Y-82624309D01*
X69032004Y-82558848D01*
X69046855Y-82490575D01*
X69056416Y-82475696D01*
X69133796Y-82372331D01*
X69184091Y-82237483D01*
X69190500Y-82177873D01*
X69190499Y-80382128D01*
X69184091Y-80322517D01*
X69133796Y-80187669D01*
X69056421Y-80084309D01*
X69032004Y-80018848D01*
X69046855Y-79950575D01*
X69056416Y-79935696D01*
X69133796Y-79832331D01*
X69184091Y-79697483D01*
X69190500Y-79637873D01*
X69190499Y-77842128D01*
X69184091Y-77782517D01*
X69156476Y-77708478D01*
X69133797Y-77647671D01*
X69133795Y-77647668D01*
X69056421Y-77544309D01*
X69032004Y-77478848D01*
X69046855Y-77410575D01*
X69056416Y-77395696D01*
X69133796Y-77292331D01*
X69184091Y-77157483D01*
X69190500Y-77097873D01*
X69190499Y-75302128D01*
X69184091Y-75242517D01*
X69150378Y-75152129D01*
X69133797Y-75107671D01*
X69133795Y-75107668D01*
X69122452Y-75092516D01*
X69056421Y-75004309D01*
X69032004Y-74938848D01*
X69046855Y-74870575D01*
X69056416Y-74855696D01*
X69133796Y-74752331D01*
X69184091Y-74617483D01*
X69190500Y-74557873D01*
X69190499Y-72762128D01*
X69184091Y-72702517D01*
X69133796Y-72567669D01*
X69056421Y-72464309D01*
X69032004Y-72398848D01*
X69046855Y-72330575D01*
X69056416Y-72315696D01*
X69133796Y-72212331D01*
X69184091Y-72077483D01*
X69190500Y-72017873D01*
X69190499Y-70222128D01*
X69184091Y-70162517D01*
X69133796Y-70027669D01*
X69056421Y-69924309D01*
X69032004Y-69858848D01*
X69046855Y-69790575D01*
X69056416Y-69775696D01*
X69133796Y-69672331D01*
X69184091Y-69537483D01*
X69190500Y-69477873D01*
X69190499Y-67682128D01*
X69184091Y-67622517D01*
X69133796Y-67487669D01*
X69056421Y-67384309D01*
X69032004Y-67318848D01*
X69046855Y-67250575D01*
X69056416Y-67235696D01*
X69133796Y-67132331D01*
X69184091Y-66997483D01*
X69190500Y-66937873D01*
X69190499Y-65142128D01*
X69184091Y-65082517D01*
X69174718Y-65057388D01*
X69133797Y-64947671D01*
X69133795Y-64947668D01*
X69056421Y-64844309D01*
X69032004Y-64778848D01*
X69046855Y-64710575D01*
X69056416Y-64695696D01*
X69133796Y-64592331D01*
X69184091Y-64457483D01*
X69190500Y-64397873D01*
X69190499Y-62602128D01*
X69184091Y-62542517D01*
X69159939Y-62477763D01*
X69133797Y-62407671D01*
X69133795Y-62407668D01*
X69056109Y-62303893D01*
X69031692Y-62238430D01*
X69046543Y-62170157D01*
X69056110Y-62155271D01*
X69133352Y-62052089D01*
X69133354Y-62052086D01*
X69183596Y-61917379D01*
X69183598Y-61917372D01*
X69189999Y-61857844D01*
X69190000Y-61857827D01*
X69190000Y-61210000D01*
X66485572Y-61210000D01*
X66508682Y-61174040D01*
X66550000Y-61033327D01*
X66550000Y-60886673D01*
X66508682Y-60745960D01*
X66485572Y-60710000D01*
X69190000Y-60710000D01*
X69190000Y-60062172D01*
X69189999Y-60062155D01*
X69183598Y-60002627D01*
X69183596Y-60002620D01*
X69133354Y-59867913D01*
X69133352Y-59867910D01*
X69056110Y-59764729D01*
X69031692Y-59699265D01*
X69046543Y-59630992D01*
X69056107Y-59616108D01*
X69069780Y-59597845D01*
X69090486Y-59570187D01*
X69146421Y-59528317D01*
X69189751Y-59520500D01*
X83065501Y-59520500D01*
X83132540Y-59540185D01*
X83178295Y-59592989D01*
X83189501Y-59644500D01*
X83189501Y-60597876D01*
X83195908Y-60657483D01*
X83246202Y-60792328D01*
X83246206Y-60792335D01*
X83332452Y-60907544D01*
X83332455Y-60907547D01*
X83447664Y-60993793D01*
X83447671Y-60993797D01*
X83492618Y-61010561D01*
X83582517Y-61044091D01*
X83642127Y-61050500D01*
X84215500Y-61050499D01*
X84282539Y-61070183D01*
X84328294Y-61122987D01*
X84339500Y-61174499D01*
X84339500Y-62477763D01*
X84337783Y-62498328D01*
X84337311Y-62501130D01*
X84337311Y-62501133D01*
X84339465Y-62591613D01*
X84339500Y-62594563D01*
X84339500Y-62632425D01*
X84340327Y-62641087D01*
X84340852Y-62649909D01*
X84342313Y-62711243D01*
X84342314Y-62711250D01*
X84349144Y-62742646D01*
X84351415Y-62757206D01*
X84354472Y-62789217D01*
X84354473Y-62789225D01*
X84371756Y-62848085D01*
X84373945Y-62856661D01*
X84386985Y-62916607D01*
X84386987Y-62916614D01*
X84399641Y-62946164D01*
X84404628Y-62960038D01*
X84413681Y-62990868D01*
X84413683Y-62990874D01*
X84441800Y-63045414D01*
X84445572Y-63053420D01*
X84469718Y-63109807D01*
X84469722Y-63109813D01*
X84487733Y-63136424D01*
X84495259Y-63149109D01*
X84509988Y-63177681D01*
X84547921Y-63225915D01*
X84553142Y-63233066D01*
X84587520Y-63283861D01*
X84587526Y-63283868D01*
X84610250Y-63306592D01*
X84620039Y-63317621D01*
X84639905Y-63342883D01*
X84639906Y-63342884D01*
X84639908Y-63342886D01*
X84686031Y-63382852D01*
X84686278Y-63383066D01*
X84692756Y-63389098D01*
X88049533Y-66745875D01*
X88062858Y-66761627D01*
X88064514Y-66763952D01*
X88130031Y-66826422D01*
X88132142Y-66828484D01*
X88158895Y-66855237D01*
X88158906Y-66855247D01*
X88165616Y-66860788D01*
X88172222Y-66866651D01*
X88216622Y-66908986D01*
X88243671Y-66926369D01*
X88255550Y-66935043D01*
X88280355Y-66955524D01*
X88280359Y-66955527D01*
X88334198Y-66984924D01*
X88341813Y-66989442D01*
X88354323Y-66997482D01*
X88393428Y-67022613D01*
X88423267Y-67034558D01*
X88436593Y-67040836D01*
X88464818Y-67056248D01*
X88523278Y-67074935D01*
X88531563Y-67077914D01*
X88588543Y-67100725D01*
X88620117Y-67106810D01*
X88634378Y-67110450D01*
X88665008Y-67120242D01*
X88725926Y-67127525D01*
X88734667Y-67128888D01*
X88794915Y-67140500D01*
X88827062Y-67140500D01*
X88841782Y-67141377D01*
X88873691Y-67145192D01*
X88934881Y-67140815D01*
X88943726Y-67140500D01*
X96012796Y-67140500D01*
X96079835Y-67160185D01*
X96100477Y-67176819D01*
X108083181Y-79159523D01*
X108116666Y-79220846D01*
X108119500Y-79247204D01*
X108119500Y-113029748D01*
X108099815Y-113096787D01*
X108047011Y-113142542D01*
X107977853Y-113152486D01*
X107914297Y-113123461D01*
X107896234Y-113104060D01*
X107887546Y-113092454D01*
X107887542Y-113092451D01*
X107830188Y-113049515D01*
X107788318Y-112993581D01*
X107780500Y-112950249D01*
X107780500Y-111862238D01*
X107782218Y-111841671D01*
X107782687Y-111838877D01*
X107782689Y-111838867D01*
X107780535Y-111748385D01*
X107780500Y-111745435D01*
X107780500Y-111707584D01*
X107780500Y-111707575D01*
X107779673Y-111698920D01*
X107779147Y-111690099D01*
X107777687Y-111628755D01*
X107770856Y-111597354D01*
X107768583Y-111582787D01*
X107765528Y-111550782D01*
X107748237Y-111491898D01*
X107746056Y-111483354D01*
X107733013Y-111423388D01*
X107720356Y-111393832D01*
X107715373Y-111379971D01*
X107706316Y-111349125D01*
X107678191Y-111294571D01*
X107674432Y-111286592D01*
X107650279Y-111230188D01*
X107632269Y-111203580D01*
X107624743Y-111190895D01*
X107610013Y-111162321D01*
X107610011Y-111162318D01*
X107572077Y-111114083D01*
X107566862Y-111106940D01*
X107532479Y-111056138D01*
X107532477Y-111056135D01*
X107509748Y-111033406D01*
X107499958Y-111022376D01*
X107480092Y-110997114D01*
X107480090Y-110997112D01*
X107433721Y-110956933D01*
X107427243Y-110950901D01*
X102736819Y-106260477D01*
X102703334Y-106199154D01*
X102700500Y-106172796D01*
X102700500Y-95138230D01*
X102720185Y-95071191D01*
X102725233Y-95063919D01*
X102793796Y-94972331D01*
X102844091Y-94837483D01*
X102850500Y-94777873D01*
X102850499Y-93182128D01*
X102844091Y-93122517D01*
X102836629Y-93102511D01*
X102793797Y-92987671D01*
X102793793Y-92987664D01*
X102707547Y-92872455D01*
X102707544Y-92872452D01*
X102592335Y-92786206D01*
X102592328Y-92786202D01*
X102457482Y-92735908D01*
X102457483Y-92735908D01*
X102397883Y-92729501D01*
X102397881Y-92729500D01*
X102397873Y-92729500D01*
X102397865Y-92729500D01*
X102331862Y-92729500D01*
X102264823Y-92709815D01*
X102219068Y-92657011D01*
X102209124Y-92587853D01*
X102238149Y-92524297D01*
X102260734Y-92503928D01*
X102406877Y-92401598D01*
X102561598Y-92246877D01*
X102687102Y-92067639D01*
X102779575Y-91869330D01*
X102836207Y-91657977D01*
X102855277Y-91440000D01*
X102836207Y-91222023D01*
X102779575Y-91010670D01*
X102687102Y-90812362D01*
X102687100Y-90812359D01*
X102687099Y-90812357D01*
X102561599Y-90633124D01*
X102561598Y-90633123D01*
X102406877Y-90478402D01*
X102227639Y-90352898D01*
X102227640Y-90352898D01*
X102227638Y-90352897D01*
X102075824Y-90282105D01*
X102023385Y-90235932D01*
X102004233Y-90168739D01*
X102024449Y-90101858D01*
X102075825Y-90057340D01*
X102227388Y-89986666D01*
X102289571Y-89943124D01*
X101644401Y-89297953D01*
X101725148Y-89285165D01*
X101838045Y-89227641D01*
X101927641Y-89138045D01*
X101985165Y-89025148D01*
X101997953Y-88944400D01*
X102643124Y-89589570D01*
X102686668Y-89527385D01*
X102686669Y-89527383D01*
X102779100Y-89329164D01*
X102779105Y-89329150D01*
X102835710Y-89117894D01*
X102835712Y-89117884D01*
X102854775Y-88900000D01*
X102854775Y-88899999D01*
X102835712Y-88682115D01*
X102835710Y-88682105D01*
X102779105Y-88470849D01*
X102779101Y-88470840D01*
X102686667Y-88272614D01*
X102686666Y-88272612D01*
X102643124Y-88210428D01*
X102643124Y-88210427D01*
X101997953Y-88855598D01*
X101985165Y-88774852D01*
X101927641Y-88661955D01*
X101838045Y-88572359D01*
X101725148Y-88514835D01*
X101644400Y-88502046D01*
X102289571Y-87856874D01*
X102227387Y-87813333D01*
X102029159Y-87720898D01*
X102029150Y-87720894D01*
X101817894Y-87664289D01*
X101817884Y-87664287D01*
X101600001Y-87645225D01*
X101599999Y-87645225D01*
X101382115Y-87664287D01*
X101382105Y-87664289D01*
X101170849Y-87720894D01*
X101170840Y-87720898D01*
X100972613Y-87813333D01*
X100910428Y-87856874D01*
X101555600Y-88502046D01*
X101474852Y-88514835D01*
X101361955Y-88572359D01*
X101272359Y-88661955D01*
X101214835Y-88774852D01*
X101202046Y-88855600D01*
X100556874Y-88210428D01*
X100513333Y-88272613D01*
X100420898Y-88470840D01*
X100420894Y-88470849D01*
X100364289Y-88682105D01*
X100364287Y-88682115D01*
X100345225Y-88899999D01*
X100345225Y-88900000D01*
X100364287Y-89117884D01*
X100364289Y-89117894D01*
X100420894Y-89329150D01*
X100420898Y-89329159D01*
X100513333Y-89527387D01*
X100556874Y-89589571D01*
X101202046Y-88944399D01*
X101214835Y-89025148D01*
X101272359Y-89138045D01*
X101361955Y-89227641D01*
X101474852Y-89285165D01*
X101555599Y-89297953D01*
X100910427Y-89943124D01*
X100972613Y-89986667D01*
X100972615Y-89986668D01*
X101124174Y-90057341D01*
X101176614Y-90103513D01*
X101195766Y-90170706D01*
X101175551Y-90237588D01*
X101124176Y-90282105D01*
X101073496Y-90305737D01*
X101026007Y-90327882D01*
X100973604Y-90339500D01*
X95337117Y-90339500D01*
X95270078Y-90319815D01*
X95240169Y-90292812D01*
X95230051Y-90280124D01*
X95208820Y-90260425D01*
X95043217Y-90106768D01*
X94832634Y-89963195D01*
X94832630Y-89963193D01*
X94832627Y-89963191D01*
X94832626Y-89963190D01*
X94603006Y-89852612D01*
X94603008Y-89852612D01*
X94359466Y-89777489D01*
X94359462Y-89777488D01*
X94359458Y-89777487D01*
X94238231Y-89759214D01*
X94107440Y-89739500D01*
X94107435Y-89739500D01*
X93852565Y-89739500D01*
X93852559Y-89739500D01*
X93695609Y-89763157D01*
X93600542Y-89777487D01*
X93600539Y-89777488D01*
X93600533Y-89777489D01*
X93356992Y-89852612D01*
X93127373Y-89963190D01*
X93127372Y-89963191D01*
X93127366Y-89963194D01*
X93127366Y-89963195D01*
X93119962Y-89968243D01*
X92916782Y-90106768D01*
X92729952Y-90280121D01*
X92729950Y-90280123D01*
X92571041Y-90479388D01*
X92443608Y-90700109D01*
X92350492Y-90937362D01*
X92350490Y-90937369D01*
X92293777Y-91185845D01*
X92274732Y-91439995D01*
X92274732Y-91440004D01*
X92293777Y-91694154D01*
X92293778Y-91694157D01*
X92350492Y-91942637D01*
X92443607Y-92179888D01*
X92571041Y-92400612D01*
X92729950Y-92599877D01*
X92916783Y-92773232D01*
X93127366Y-92916805D01*
X93127371Y-92916807D01*
X93127372Y-92916808D01*
X93127373Y-92916809D01*
X93224852Y-92963752D01*
X93356992Y-93027387D01*
X93356993Y-93027387D01*
X93356996Y-93027389D01*
X93600542Y-93102513D01*
X93852565Y-93140500D01*
X94107435Y-93140500D01*
X94359458Y-93102513D01*
X94603004Y-93027389D01*
X94832634Y-92916805D01*
X95043217Y-92773232D01*
X95230050Y-92599877D01*
X95240169Y-92587187D01*
X95297358Y-92547047D01*
X95337117Y-92540500D01*
X100579140Y-92540500D01*
X100646179Y-92560185D01*
X100691934Y-92612989D01*
X100701878Y-92682147D01*
X100672853Y-92745703D01*
X100622473Y-92780682D01*
X100607671Y-92786202D01*
X100607664Y-92786206D01*
X100492455Y-92872452D01*
X100492452Y-92872455D01*
X100406206Y-92987664D01*
X100406202Y-92987671D01*
X100355908Y-93122517D01*
X100351367Y-93164759D01*
X100349501Y-93182123D01*
X100349500Y-93182135D01*
X100349500Y-94777870D01*
X100349501Y-94777876D01*
X100355908Y-94837483D01*
X100406202Y-94972328D01*
X100406203Y-94972330D01*
X100474767Y-95063919D01*
X100499184Y-95129383D01*
X100499500Y-95138230D01*
X100499500Y-106577763D01*
X100497783Y-106598328D01*
X100497311Y-106601130D01*
X100497311Y-106601133D01*
X100499465Y-106691613D01*
X100499500Y-106694563D01*
X100499500Y-106732425D01*
X100500053Y-106738218D01*
X100500327Y-106741087D01*
X100500852Y-106749909D01*
X100502313Y-106811243D01*
X100502314Y-106811250D01*
X100509144Y-106842646D01*
X100511415Y-106857206D01*
X100514472Y-106889217D01*
X100514473Y-106889225D01*
X100531756Y-106948085D01*
X100533945Y-106956661D01*
X100546985Y-107016607D01*
X100546987Y-107016614D01*
X100559641Y-107046164D01*
X100564628Y-107060038D01*
X100573681Y-107090868D01*
X100573683Y-107090874D01*
X100601800Y-107145414D01*
X100605572Y-107153420D01*
X100629718Y-107209807D01*
X100629722Y-107209813D01*
X100647733Y-107236424D01*
X100655259Y-107249109D01*
X100669988Y-107277681D01*
X100707921Y-107325915D01*
X100713140Y-107333064D01*
X100721223Y-107345006D01*
X100747520Y-107383861D01*
X100747526Y-107383868D01*
X100770250Y-107406592D01*
X100780039Y-107417621D01*
X100799905Y-107442883D01*
X100799906Y-107442884D01*
X100799908Y-107442886D01*
X100846031Y-107482852D01*
X100846278Y-107483066D01*
X100852756Y-107489098D01*
X105543181Y-112179523D01*
X105576666Y-112240846D01*
X105579500Y-112267204D01*
X105579500Y-112950249D01*
X105559815Y-113017288D01*
X105529812Y-113049515D01*
X105472457Y-113092451D01*
X105472451Y-113092457D01*
X105386206Y-113207664D01*
X105386202Y-113207671D01*
X105335908Y-113342517D01*
X105329501Y-113402116D01*
X105329500Y-113402135D01*
X105329500Y-115197870D01*
X105329501Y-115197876D01*
X105335908Y-115257483D01*
X105386202Y-115392328D01*
X105386206Y-115392335D01*
X105472452Y-115507544D01*
X105472455Y-115507547D01*
X105587664Y-115593793D01*
X105587671Y-115593797D01*
X105722517Y-115644091D01*
X105722516Y-115644091D01*
X105729444Y-115644835D01*
X105782127Y-115650500D01*
X107577872Y-115650499D01*
X107637483Y-115644091D01*
X107772331Y-115593796D01*
X107887546Y-115507546D01*
X107973796Y-115392331D01*
X108022810Y-115260916D01*
X108064681Y-115204984D01*
X108130145Y-115180566D01*
X108198418Y-115195417D01*
X108226673Y-115216569D01*
X108348599Y-115338495D01*
X108445384Y-115406265D01*
X108542165Y-115474032D01*
X108542167Y-115474033D01*
X108542170Y-115474035D01*
X108756337Y-115573903D01*
X108756343Y-115573904D01*
X108756344Y-115573905D01*
X108799133Y-115585370D01*
X108984592Y-115635063D01*
X109161034Y-115650500D01*
X109219999Y-115655659D01*
X109220000Y-115655659D01*
X109220001Y-115655659D01*
X109278966Y-115650500D01*
X109455408Y-115635063D01*
X109683663Y-115573903D01*
X109897830Y-115474035D01*
X110091401Y-115338495D01*
X110258495Y-115171401D01*
X110394035Y-114977830D01*
X110493903Y-114763663D01*
X110555063Y-114535408D01*
X110575659Y-114300000D01*
X110555063Y-114064592D01*
X110493903Y-113836337D01*
X110394035Y-113622171D01*
X110342924Y-113549176D01*
X110320597Y-113482970D01*
X110320500Y-113478054D01*
X110320500Y-78842237D01*
X110322218Y-78821670D01*
X110322687Y-78818876D01*
X110322689Y-78818866D01*
X110320535Y-78728385D01*
X110320500Y-78725435D01*
X110320500Y-78687584D01*
X110320500Y-78687575D01*
X110319673Y-78678920D01*
X110319147Y-78670099D01*
X110317687Y-78608755D01*
X110310856Y-78577354D01*
X110308583Y-78562787D01*
X110305528Y-78530782D01*
X110288237Y-78471898D01*
X110286056Y-78463354D01*
X110273013Y-78403388D01*
X110260356Y-78373832D01*
X110255373Y-78359971D01*
X110246316Y-78329125D01*
X110218201Y-78274588D01*
X110214439Y-78266605D01*
X110190279Y-78210187D01*
X110190276Y-78210182D01*
X110172263Y-78183567D01*
X110164738Y-78170884D01*
X110150016Y-78142328D01*
X110150011Y-78142318D01*
X110112070Y-78094073D01*
X110106858Y-78086934D01*
X110072479Y-78036138D01*
X110072477Y-78036135D01*
X110049748Y-78013406D01*
X110039958Y-78002376D01*
X110020092Y-77977114D01*
X110020090Y-77977112D01*
X109973721Y-77936933D01*
X109967243Y-77930901D01*
X97370466Y-65334124D01*
X97357137Y-65318366D01*
X97355488Y-65316050D01*
X97355480Y-65316041D01*
X97289968Y-65253576D01*
X97287856Y-65251514D01*
X97261096Y-65224754D01*
X97254385Y-65219213D01*
X97247774Y-65213345D01*
X97203378Y-65171014D01*
X97203375Y-65171012D01*
X97203371Y-65171009D01*
X97176347Y-65153641D01*
X97164441Y-65144948D01*
X97139648Y-65124478D01*
X97139643Y-65124475D01*
X97085779Y-65095063D01*
X97078177Y-65090552D01*
X97026576Y-65057388D01*
X96996731Y-65045440D01*
X96983392Y-65039155D01*
X96955184Y-65023752D01*
X96896732Y-65005066D01*
X96888406Y-65002073D01*
X96849329Y-64986429D01*
X96831457Y-64979275D01*
X96831456Y-64979274D01*
X96831454Y-64979274D01*
X96831453Y-64979273D01*
X96799894Y-64973190D01*
X96785611Y-64969545D01*
X96754991Y-64959757D01*
X96694064Y-64952472D01*
X96685322Y-64951109D01*
X96678377Y-64949770D01*
X96625085Y-64939500D01*
X96625082Y-64939500D01*
X96592938Y-64939500D01*
X96578218Y-64938623D01*
X96546309Y-64934808D01*
X96492964Y-64938623D01*
X96485119Y-64939184D01*
X96476274Y-64939500D01*
X89407204Y-64939500D01*
X89340165Y-64919815D01*
X89319523Y-64903181D01*
X86576819Y-62160477D01*
X86543334Y-62099154D01*
X86540500Y-62072796D01*
X86540500Y-61174499D01*
X86560185Y-61107460D01*
X86612989Y-61061705D01*
X86664500Y-61050499D01*
X87237871Y-61050499D01*
X87237872Y-61050499D01*
X87297483Y-61044091D01*
X87432331Y-60993796D01*
X87547546Y-60907546D01*
X87633796Y-60792331D01*
X87684091Y-60657483D01*
X87690500Y-60597873D01*
X87690499Y-58550000D01*
X89440000Y-58550000D01*
X90940000Y-58550000D01*
X90940000Y-59050000D01*
X89440001Y-59050000D01*
X89440001Y-59864197D01*
X89450400Y-59996332D01*
X89505377Y-60214519D01*
X89598428Y-60419374D01*
X89598431Y-60419380D01*
X89726559Y-60604323D01*
X89726569Y-60604335D01*
X89885664Y-60763430D01*
X89885676Y-60763440D01*
X90070619Y-60891568D01*
X90070625Y-60891571D01*
X90275480Y-60984622D01*
X90493667Y-61039599D01*
X90625810Y-61049999D01*
X91189999Y-61049999D01*
X91190000Y-61049998D01*
X91190000Y-60233686D01*
X91230156Y-60259493D01*
X91368111Y-60300000D01*
X91511889Y-60300000D01*
X91649844Y-60259493D01*
X91690000Y-60233686D01*
X91690000Y-61049999D01*
X92254182Y-61049999D01*
X92254197Y-61049998D01*
X92386332Y-61039599D01*
X92604519Y-60984622D01*
X92809374Y-60891571D01*
X92809380Y-60891568D01*
X92994323Y-60763440D01*
X92994335Y-60763430D01*
X93153430Y-60604335D01*
X93153440Y-60604323D01*
X93281568Y-60419380D01*
X93281571Y-60419374D01*
X93374622Y-60214519D01*
X93429599Y-59996332D01*
X93439999Y-59864196D01*
X93440000Y-59864184D01*
X93440000Y-59050000D01*
X91940000Y-59050000D01*
X91940000Y-58550000D01*
X93439999Y-58550000D01*
X93439999Y-57735817D01*
X93439998Y-57735802D01*
X93429599Y-57603667D01*
X93374622Y-57385480D01*
X93281571Y-57180625D01*
X93281568Y-57180619D01*
X93153440Y-56995676D01*
X93153430Y-56995664D01*
X92994335Y-56836569D01*
X92994323Y-56836559D01*
X92809380Y-56708431D01*
X92809374Y-56708428D01*
X92604519Y-56615377D01*
X92386332Y-56560400D01*
X92254196Y-56550000D01*
X91690000Y-56550000D01*
X91690000Y-57366313D01*
X91649844Y-57340507D01*
X91511889Y-57300000D01*
X91368111Y-57300000D01*
X91230156Y-57340507D01*
X91190000Y-57366313D01*
X91190000Y-56550000D01*
X90625817Y-56550000D01*
X90625802Y-56550001D01*
X90493667Y-56560400D01*
X90275480Y-56615377D01*
X90070625Y-56708428D01*
X90070619Y-56708431D01*
X89885676Y-56836559D01*
X89885664Y-56836569D01*
X89726569Y-56995664D01*
X89726559Y-56995676D01*
X89598431Y-57180619D01*
X89598428Y-57180625D01*
X89505377Y-57385480D01*
X89450400Y-57603667D01*
X89440000Y-57735803D01*
X89440000Y-58550000D01*
X87690499Y-58550000D01*
X87690499Y-57002128D01*
X87684091Y-56942517D01*
X87669434Y-56903220D01*
X87633797Y-56807671D01*
X87633793Y-56807664D01*
X87547547Y-56692455D01*
X87547544Y-56692452D01*
X87432335Y-56606206D01*
X87432328Y-56606202D01*
X87385061Y-56588573D01*
X87329127Y-56546702D01*
X87304710Y-56481238D01*
X87319562Y-56412965D01*
X87368967Y-56363559D01*
X87434972Y-56348566D01*
X87448053Y-56349261D01*
X87471349Y-56350499D01*
X87471369Y-56350499D01*
X87471378Y-56350500D01*
X87471386Y-56350500D01*
X89408614Y-56350500D01*
X89408622Y-56350500D01*
X89461241Y-56347705D01*
X89691126Y-56303245D01*
X89910190Y-56220574D01*
X90112132Y-56102070D01*
X90221335Y-56009998D01*
X90291141Y-55951143D01*
X90291143Y-55951141D01*
X90442065Y-55772138D01*
X90442065Y-55772137D01*
X90442070Y-55772132D01*
X90560574Y-55570190D01*
X90643245Y-55351126D01*
X90687705Y-55121241D01*
X90690500Y-55068622D01*
X90690500Y-53131378D01*
X90687705Y-53078759D01*
X90643245Y-52848874D01*
X90560574Y-52629810D01*
X90442070Y-52427868D01*
X90442065Y-52427861D01*
X90291143Y-52248858D01*
X90291141Y-52248856D01*
X90112138Y-52097934D01*
X90112131Y-52097929D01*
X89910189Y-51979425D01*
X89819832Y-51945326D01*
X89691126Y-51896755D01*
X89691121Y-51896754D01*
X89461243Y-51852295D01*
X89408652Y-51849501D01*
X89408629Y-51849500D01*
X89408622Y-51849500D01*
X87471378Y-51849500D01*
X87471370Y-51849500D01*
X87471347Y-51849501D01*
X87418756Y-51852295D01*
X87418755Y-51852295D01*
X87188878Y-51896754D01*
X87188876Y-51896754D01*
X87188874Y-51896755D01*
X87114933Y-51924659D01*
X86969810Y-51979425D01*
X86767868Y-52097929D01*
X86767861Y-52097934D01*
X86588858Y-52248856D01*
X86588856Y-52248858D01*
X86437934Y-52427861D01*
X86437929Y-52427868D01*
X86319425Y-52629810D01*
X86264659Y-52774933D01*
X86236755Y-52848874D01*
X86236754Y-52848876D01*
X86236754Y-52848878D01*
X86192295Y-53078755D01*
X86192295Y-53078756D01*
X86189501Y-53131347D01*
X86189500Y-53131386D01*
X86189500Y-55068613D01*
X86189501Y-55068652D01*
X86192295Y-55121243D01*
X86192295Y-55121244D01*
X86236754Y-55351121D01*
X86236755Y-55351126D01*
X86279992Y-55465697D01*
X86319425Y-55570189D01*
X86437929Y-55772131D01*
X86437934Y-55772138D01*
X86588856Y-55951141D01*
X86588858Y-55951143D01*
X86767861Y-56102065D01*
X86767868Y-56102070D01*
X86969810Y-56220574D01*
X87188874Y-56303245D01*
X87191517Y-56303756D01*
X87192537Y-56304282D01*
X87193950Y-56304683D01*
X87193868Y-56304970D01*
X87253598Y-56335814D01*
X87288493Y-56396346D01*
X87285122Y-56466134D01*
X87244556Y-56523021D01*
X87179674Y-56548946D01*
X87167969Y-56549500D01*
X83642129Y-56549500D01*
X83642123Y-56549501D01*
X83582516Y-56555908D01*
X83447671Y-56606202D01*
X83447664Y-56606206D01*
X83332455Y-56692452D01*
X83332452Y-56692455D01*
X83246206Y-56807664D01*
X83246202Y-56807671D01*
X83195908Y-56942517D01*
X83189501Y-57002116D01*
X83189501Y-57002123D01*
X83189500Y-57002135D01*
X83189500Y-57195500D01*
X83169815Y-57262539D01*
X83117011Y-57308294D01*
X83065500Y-57319500D01*
X69189751Y-57319500D01*
X69122712Y-57299815D01*
X69090485Y-57269812D01*
X69056422Y-57224311D01*
X69032004Y-57158847D01*
X69046855Y-57090574D01*
X69056411Y-57075702D01*
X69133796Y-56972331D01*
X69184091Y-56837483D01*
X69190500Y-56777873D01*
X69190499Y-54982128D01*
X69184091Y-54922517D01*
X69181817Y-54916421D01*
X69133797Y-54787671D01*
X69133793Y-54787664D01*
X69047547Y-54672455D01*
X69047544Y-54672452D01*
X68932335Y-54586206D01*
X68932328Y-54586202D01*
X68797482Y-54535908D01*
X68797483Y-54535908D01*
X68737883Y-54529501D01*
X68737881Y-54529500D01*
X68737873Y-54529500D01*
X68737865Y-54529500D01*
X66104385Y-54529500D01*
X66093578Y-54529028D01*
X66040001Y-54524341D01*
X66039997Y-54524341D01*
X65986419Y-54529028D01*
X65975613Y-54529500D01*
X65142129Y-54529500D01*
X65142123Y-54529501D01*
X65082516Y-54535908D01*
X64947671Y-54586202D01*
X64947664Y-54586206D01*
X64832455Y-54672452D01*
X64832452Y-54672455D01*
X64746206Y-54787664D01*
X64746202Y-54787671D01*
X64695908Y-54922517D01*
X64689877Y-54978621D01*
X64689501Y-54982123D01*
X64689500Y-54982135D01*
X64689500Y-55815616D01*
X64689028Y-55826423D01*
X64684341Y-55879997D01*
X64684341Y-55880002D01*
X64689028Y-55933576D01*
X64689500Y-55944383D01*
X64689500Y-56777870D01*
X64689501Y-56777876D01*
X64695908Y-56837483D01*
X64746202Y-56972328D01*
X64746203Y-56972330D01*
X64746204Y-56972331D01*
X64823576Y-57075687D01*
X64823578Y-57075689D01*
X64847995Y-57141153D01*
X64833144Y-57209426D01*
X64823578Y-57224309D01*
X64813168Y-57238216D01*
X64746203Y-57327669D01*
X64746202Y-57327671D01*
X64695908Y-57462517D01*
X64689501Y-57522116D01*
X64689501Y-57522123D01*
X64689500Y-57522135D01*
X64689500Y-58355616D01*
X64689028Y-58366423D01*
X64684341Y-58419997D01*
X64684341Y-58420002D01*
X64689028Y-58473576D01*
X64689500Y-58484383D01*
X64689500Y-59317870D01*
X64689501Y-59317876D01*
X64695908Y-59377483D01*
X64746202Y-59512328D01*
X64746206Y-59512335D01*
X64823889Y-59616105D01*
X64848307Y-59681569D01*
X64833456Y-59749842D01*
X64823890Y-59764727D01*
X64746647Y-59867910D01*
X64746645Y-59867913D01*
X64696403Y-60002620D01*
X64696401Y-60002627D01*
X64690000Y-60062155D01*
X64690000Y-60710000D01*
X65594428Y-60710000D01*
X65571318Y-60745960D01*
X65530000Y-60886673D01*
X65530000Y-61033327D01*
X65571318Y-61174040D01*
X65594428Y-61210000D01*
X64690000Y-61210000D01*
X64690000Y-61857844D01*
X64696401Y-61917372D01*
X64696403Y-61917379D01*
X64746645Y-62052086D01*
X64746646Y-62052088D01*
X64823890Y-62155272D01*
X64848307Y-62220736D01*
X64833456Y-62289009D01*
X64823890Y-62303894D01*
X64746204Y-62407669D01*
X64746202Y-62407671D01*
X64695908Y-62542517D01*
X64690630Y-62591613D01*
X64689501Y-62602123D01*
X64689500Y-62602135D01*
X64689500Y-63435616D01*
X64689028Y-63446423D01*
X64684341Y-63499997D01*
X64684341Y-63500002D01*
X64689028Y-63553576D01*
X64689500Y-63564383D01*
X64689500Y-64397870D01*
X64689501Y-64397876D01*
X64695908Y-64457483D01*
X64746202Y-64592328D01*
X64746203Y-64592330D01*
X64823578Y-64695689D01*
X64847995Y-64761153D01*
X64833144Y-64829426D01*
X64823578Y-64844311D01*
X64746203Y-64947669D01*
X64746202Y-64947671D01*
X64695908Y-65082517D01*
X64689501Y-65142116D01*
X64689501Y-65142123D01*
X64689500Y-65142135D01*
X64689500Y-65975616D01*
X64689028Y-65986423D01*
X64684341Y-66039997D01*
X64684341Y-66040002D01*
X64689028Y-66093576D01*
X64689500Y-66104383D01*
X64689500Y-66937870D01*
X64689501Y-66937876D01*
X64695908Y-66997483D01*
X64746202Y-67132328D01*
X64746203Y-67132330D01*
X64823578Y-67235689D01*
X64847995Y-67301153D01*
X64833144Y-67369426D01*
X64823578Y-67384311D01*
X64746203Y-67487669D01*
X64746202Y-67487671D01*
X64695908Y-67622517D01*
X64689501Y-67682116D01*
X64689501Y-67682123D01*
X64689500Y-67682135D01*
X64689500Y-68515616D01*
X64689028Y-68526423D01*
X64684341Y-68579997D01*
X64684341Y-68580002D01*
X64689028Y-68633576D01*
X64689500Y-68644383D01*
X64689500Y-69477870D01*
X64689501Y-69477876D01*
X64695908Y-69537483D01*
X64746202Y-69672328D01*
X64746203Y-69672330D01*
X64823578Y-69775689D01*
X64847995Y-69841153D01*
X64833144Y-69909426D01*
X64823578Y-69924311D01*
X64746203Y-70027669D01*
X64746202Y-70027671D01*
X64695908Y-70162517D01*
X64689501Y-70222116D01*
X64689501Y-70222123D01*
X64689500Y-70222135D01*
X64689500Y-71055616D01*
X64689028Y-71066423D01*
X64684341Y-71119997D01*
X64684341Y-71120002D01*
X64689028Y-71173576D01*
X64689500Y-71184383D01*
X64689500Y-72017870D01*
X64689501Y-72017876D01*
X64695908Y-72077483D01*
X64746202Y-72212328D01*
X64746203Y-72212330D01*
X64823578Y-72315689D01*
X64847995Y-72381153D01*
X64833144Y-72449426D01*
X64823578Y-72464311D01*
X64746203Y-72567669D01*
X64746202Y-72567671D01*
X64695908Y-72702517D01*
X64689501Y-72762116D01*
X64689501Y-72762123D01*
X64689500Y-72762135D01*
X64689500Y-74557870D01*
X64689501Y-74557876D01*
X64695908Y-74617483D01*
X64746202Y-74752328D01*
X64746203Y-74752330D01*
X64823578Y-74855689D01*
X64847995Y-74921153D01*
X64833144Y-74989426D01*
X64823578Y-75004311D01*
X64746203Y-75107669D01*
X64746202Y-75107671D01*
X64695908Y-75242517D01*
X64689501Y-75302116D01*
X64689501Y-75302123D01*
X64689500Y-75302135D01*
X64689500Y-76135616D01*
X64689028Y-76146423D01*
X64684341Y-76199997D01*
X64684341Y-76200002D01*
X64689028Y-76253576D01*
X64689500Y-76264383D01*
X64689500Y-77097870D01*
X64689501Y-77097876D01*
X64695908Y-77157483D01*
X64746202Y-77292328D01*
X64746203Y-77292330D01*
X64823578Y-77395689D01*
X64847995Y-77461153D01*
X64833144Y-77529426D01*
X64823578Y-77544311D01*
X64746203Y-77647669D01*
X64746202Y-77647671D01*
X64695908Y-77782517D01*
X64689501Y-77842116D01*
X64689501Y-77842123D01*
X64689500Y-77842135D01*
X64689500Y-78675616D01*
X64689028Y-78686423D01*
X64684341Y-78739997D01*
X64684341Y-78740002D01*
X64689028Y-78793576D01*
X64689500Y-78804383D01*
X64689500Y-79637870D01*
X64689501Y-79637876D01*
X64695908Y-79697483D01*
X64746202Y-79832328D01*
X64746203Y-79832330D01*
X64823578Y-79935689D01*
X64847995Y-80001153D01*
X64833144Y-80069426D01*
X64823578Y-80084311D01*
X64746203Y-80187669D01*
X64746202Y-80187671D01*
X64695908Y-80322517D01*
X64689501Y-80382116D01*
X64689501Y-80382123D01*
X64689500Y-80382135D01*
X64689500Y-81215616D01*
X64689028Y-81226423D01*
X64684341Y-81279997D01*
X64684341Y-81280002D01*
X64689028Y-81333576D01*
X64689500Y-81344383D01*
X64689500Y-82177870D01*
X64689501Y-82177876D01*
X64695908Y-82237483D01*
X64746202Y-82372328D01*
X64746203Y-82372330D01*
X64823578Y-82475689D01*
X64847995Y-82541153D01*
X64833144Y-82609426D01*
X64823578Y-82624311D01*
X64746203Y-82727669D01*
X64746202Y-82727671D01*
X64695908Y-82862517D01*
X64692955Y-82889989D01*
X64689501Y-82922123D01*
X64689500Y-82922135D01*
X64689500Y-83755616D01*
X64689028Y-83766423D01*
X64684341Y-83819997D01*
X64684341Y-83820002D01*
X64689028Y-83873576D01*
X64689500Y-83884383D01*
X64689500Y-84717870D01*
X64689501Y-84717876D01*
X64695908Y-84777483D01*
X64746202Y-84912328D01*
X64746203Y-84912330D01*
X64823578Y-85015689D01*
X64847995Y-85081153D01*
X64833144Y-85149426D01*
X64823578Y-85164311D01*
X64746203Y-85267669D01*
X64746202Y-85267671D01*
X64695908Y-85402517D01*
X64689501Y-85462116D01*
X64689501Y-85462123D01*
X64689500Y-85462135D01*
X64689500Y-87257870D01*
X64689501Y-87257876D01*
X64695908Y-87317483D01*
X64746202Y-87452328D01*
X64746203Y-87452330D01*
X64746204Y-87452331D01*
X64823576Y-87555687D01*
X64823578Y-87555689D01*
X64847995Y-87621153D01*
X64833144Y-87689426D01*
X64823578Y-87704311D01*
X64746203Y-87807669D01*
X64746202Y-87807671D01*
X64695908Y-87942517D01*
X64689501Y-88002116D01*
X64689501Y-88002123D01*
X64689500Y-88002135D01*
X64689500Y-88835616D01*
X64689028Y-88846423D01*
X64684341Y-88899997D01*
X64684341Y-88900002D01*
X64689028Y-88953576D01*
X64689500Y-88964383D01*
X64689500Y-89797870D01*
X64689501Y-89797876D01*
X64695908Y-89857483D01*
X64746202Y-89992328D01*
X64746203Y-89992330D01*
X64823578Y-90095689D01*
X64847995Y-90161153D01*
X64833144Y-90229426D01*
X64823578Y-90244311D01*
X64746203Y-90347669D01*
X64746202Y-90347671D01*
X64695908Y-90482517D01*
X64689501Y-90542116D01*
X64689501Y-90542123D01*
X64689500Y-90542135D01*
X64689500Y-91375616D01*
X64689028Y-91386423D01*
X64684341Y-91439997D01*
X64684341Y-91440002D01*
X64689028Y-91493576D01*
X64689500Y-91504383D01*
X64689500Y-92337870D01*
X64689501Y-92337876D01*
X64695908Y-92397483D01*
X64746202Y-92532328D01*
X64746203Y-92532330D01*
X64823578Y-92635689D01*
X64847995Y-92701153D01*
X64833144Y-92769426D01*
X64823578Y-92784311D01*
X64746203Y-92887669D01*
X64746202Y-92887671D01*
X64695908Y-93022517D01*
X64689501Y-93082116D01*
X64689501Y-93082123D01*
X64689500Y-93082135D01*
X64689500Y-93915616D01*
X64689028Y-93926423D01*
X64684341Y-93979997D01*
X64684341Y-93980002D01*
X64689028Y-94033576D01*
X64689500Y-94044383D01*
X64689500Y-94877870D01*
X64689501Y-94877876D01*
X64695908Y-94937483D01*
X64746202Y-95072328D01*
X64746203Y-95072330D01*
X64779508Y-95116819D01*
X64823576Y-95175687D01*
X64823578Y-95175689D01*
X64847995Y-95241153D01*
X64833144Y-95309426D01*
X64823578Y-95324311D01*
X64746203Y-95427669D01*
X64746202Y-95427671D01*
X64695908Y-95562517D01*
X64689501Y-95622116D01*
X64689501Y-95622123D01*
X64689500Y-95622135D01*
X64689500Y-96455616D01*
X64689028Y-96466423D01*
X64684341Y-96519997D01*
X64684341Y-96520002D01*
X64689028Y-96573576D01*
X64689500Y-96584383D01*
X64689500Y-97417870D01*
X64689501Y-97417876D01*
X64695908Y-97477483D01*
X64746202Y-97612328D01*
X64746203Y-97612330D01*
X64823578Y-97715689D01*
X64847995Y-97781153D01*
X64833144Y-97849426D01*
X64823578Y-97864309D01*
X64823265Y-97864729D01*
X64746203Y-97967669D01*
X64746202Y-97967671D01*
X64695908Y-98102517D01*
X64689501Y-98162116D01*
X64689500Y-98162135D01*
X64689500Y-99957870D01*
X64689501Y-99957876D01*
X64695908Y-100017483D01*
X64746202Y-100152328D01*
X64746203Y-100152330D01*
X64823578Y-100255689D01*
X64847995Y-100321153D01*
X64833144Y-100389426D01*
X64823578Y-100404311D01*
X64746203Y-100507669D01*
X64746202Y-100507671D01*
X64699216Y-100633649D01*
X64659685Y-100687787D01*
X64634091Y-100707914D01*
X64626944Y-100713133D01*
X64576140Y-100747518D01*
X64576129Y-100747527D01*
X64553399Y-100770256D01*
X64542380Y-100780037D01*
X64517113Y-100799908D01*
X64476931Y-100846279D01*
X64470902Y-100852754D01*
X62794120Y-102529536D01*
X62778381Y-102542852D01*
X62776047Y-102544514D01*
X62713594Y-102610012D01*
X62711538Y-102612118D01*
X62684754Y-102638904D01*
X62684751Y-102638908D01*
X62679213Y-102645614D01*
X62673347Y-102652222D01*
X62631019Y-102696616D01*
X62631012Y-102696625D01*
X62613638Y-102723658D01*
X62604947Y-102735560D01*
X62584477Y-102760353D01*
X62584476Y-102760355D01*
X62555067Y-102814211D01*
X62550552Y-102821820D01*
X62517388Y-102873425D01*
X62505443Y-102903262D01*
X62499160Y-102916598D01*
X62483754Y-102944813D01*
X62483749Y-102944823D01*
X62465065Y-103003270D01*
X62462072Y-103011595D01*
X62439275Y-103068541D01*
X62439274Y-103068542D01*
X62433189Y-103100110D01*
X62429545Y-103114387D01*
X62419758Y-103145008D01*
X62419757Y-103145009D01*
X62412472Y-103205935D01*
X62411109Y-103214675D01*
X62399500Y-103274916D01*
X62399500Y-103307061D01*
X62398623Y-103321781D01*
X62394808Y-103353686D01*
X62394808Y-103353693D01*
X62399184Y-103414881D01*
X62399500Y-103423726D01*
X62399500Y-106172795D01*
X62379815Y-106239834D01*
X62363181Y-106260476D01*
X56534120Y-112089536D01*
X56518381Y-112102852D01*
X56516047Y-112104514D01*
X56453594Y-112170012D01*
X56451538Y-112172118D01*
X56424754Y-112198904D01*
X56424751Y-112198908D01*
X56419213Y-112205614D01*
X56413347Y-112212222D01*
X56371019Y-112256616D01*
X56371012Y-112256625D01*
X56353638Y-112283658D01*
X56344947Y-112295560D01*
X56324477Y-112320353D01*
X56324476Y-112320355D01*
X56295067Y-112374211D01*
X56290552Y-112381820D01*
X56257388Y-112433425D01*
X56245443Y-112463262D01*
X56239160Y-112476598D01*
X56223754Y-112504813D01*
X56223749Y-112504823D01*
X56205065Y-112563270D01*
X56202072Y-112571595D01*
X56179275Y-112628541D01*
X56179274Y-112628542D01*
X56173189Y-112660110D01*
X56169545Y-112674387D01*
X56159758Y-112705008D01*
X56159757Y-112705009D01*
X56152472Y-112765935D01*
X56151109Y-112774675D01*
X56139500Y-112834916D01*
X56139500Y-112867061D01*
X56138623Y-112881783D01*
X56134717Y-112914449D01*
X56107212Y-112978677D01*
X56095936Y-112990625D01*
X55962386Y-113114542D01*
X55962384Y-113114545D01*
X55799971Y-113318205D01*
X55669726Y-113543795D01*
X55574560Y-113786273D01*
X55574554Y-113786292D01*
X55516592Y-114040242D01*
X55516591Y-114040247D01*
X55497127Y-114299995D01*
X55497127Y-114300004D01*
X51682372Y-114300004D01*
X51682372Y-114299995D01*
X51662912Y-114040322D01*
X51662911Y-114040317D01*
X51604966Y-113786440D01*
X51604960Y-113786421D01*
X51509822Y-113544012D01*
X51379612Y-113318483D01*
X51333230Y-113260321D01*
X50672740Y-113920811D01*
X50626870Y-113834290D01*
X50510698Y-113697522D01*
X50367840Y-113588924D01*
X50319765Y-113566682D01*
X50980172Y-112906274D01*
X50811186Y-112791062D01*
X50811177Y-112791057D01*
X50576562Y-112678073D01*
X50576564Y-112678073D01*
X50327722Y-112601315D01*
X50327716Y-112601314D01*
X50070213Y-112562500D01*
X49809786Y-112562500D01*
X49552283Y-112601314D01*
X49552277Y-112601315D01*
X49303436Y-112678073D01*
X49068819Y-112791059D01*
X49068806Y-112791066D01*
X48899826Y-112906273D01*
X49559606Y-113566053D01*
X49437787Y-113639350D01*
X49307508Y-113762757D01*
X49206804Y-113911284D01*
X49204218Y-113917771D01*
X48546769Y-113260322D01*
X48500385Y-113318486D01*
X48370177Y-113544012D01*
X48275039Y-113786421D01*
X48275033Y-113786440D01*
X48217088Y-114040317D01*
X48217087Y-114040322D01*
X48197628Y-114299995D01*
X48197628Y-114300004D01*
X38100500Y-114300004D01*
X38100500Y-105037870D01*
X45109500Y-105037870D01*
X45109501Y-105037876D01*
X45115908Y-105097483D01*
X45166202Y-105232328D01*
X45166206Y-105232335D01*
X45252452Y-105347544D01*
X45252455Y-105347547D01*
X45367664Y-105433793D01*
X45367671Y-105433797D01*
X45502517Y-105484091D01*
X45502516Y-105484091D01*
X45509444Y-105484835D01*
X45562127Y-105490500D01*
X48195611Y-105490499D01*
X48206419Y-105490971D01*
X48259999Y-105495659D01*
X48260000Y-105495659D01*
X48260001Y-105495659D01*
X48313580Y-105490971D01*
X48324388Y-105490499D01*
X49157871Y-105490499D01*
X49157872Y-105490499D01*
X49217483Y-105484091D01*
X49352331Y-105433796D01*
X49467546Y-105347546D01*
X49553796Y-105232331D01*
X49604091Y-105097483D01*
X49610500Y-105037873D01*
X49610499Y-104204384D01*
X49610971Y-104193576D01*
X49615659Y-104140000D01*
X49615659Y-104139999D01*
X49610971Y-104086421D01*
X49610499Y-104075613D01*
X49610499Y-103910001D01*
X53254341Y-103910001D01*
X53259028Y-103963574D01*
X53259500Y-103974381D01*
X53259500Y-106607870D01*
X53259501Y-106607876D01*
X53265908Y-106667483D01*
X53316202Y-106802328D01*
X53316206Y-106802335D01*
X53402452Y-106917544D01*
X53402455Y-106917547D01*
X53517664Y-107003793D01*
X53517671Y-107003797D01*
X53652517Y-107054091D01*
X53652516Y-107054091D01*
X53659444Y-107054835D01*
X53712127Y-107060500D01*
X55507872Y-107060499D01*
X55567483Y-107054091D01*
X55702331Y-107003796D01*
X55806106Y-106926109D01*
X55871570Y-106901692D01*
X55939843Y-106916543D01*
X55954729Y-106926110D01*
X56057910Y-107003352D01*
X56057913Y-107003354D01*
X56192620Y-107053596D01*
X56192627Y-107053598D01*
X56252155Y-107059999D01*
X56252172Y-107060000D01*
X56900000Y-107060000D01*
X56900000Y-104356494D01*
X57004839Y-104404373D01*
X57113527Y-104420000D01*
X57186473Y-104420000D01*
X57295161Y-104404373D01*
X57400000Y-104356494D01*
X57400000Y-107060000D01*
X58047828Y-107060000D01*
X58047844Y-107059999D01*
X58107372Y-107053598D01*
X58107379Y-107053596D01*
X58242086Y-107003354D01*
X58242089Y-107003352D01*
X58345271Y-106926110D01*
X58410735Y-106901692D01*
X58479008Y-106916543D01*
X58493888Y-106926105D01*
X58581200Y-106991467D01*
X58597668Y-107003795D01*
X58597671Y-107003797D01*
X58732517Y-107054091D01*
X58732516Y-107054091D01*
X58739444Y-107054835D01*
X58792127Y-107060500D01*
X60587872Y-107060499D01*
X60647483Y-107054091D01*
X60782331Y-107003796D01*
X60897546Y-106917546D01*
X60983796Y-106802331D01*
X61034091Y-106667483D01*
X61040500Y-106607873D01*
X61040499Y-103974381D01*
X61040971Y-103963578D01*
X61045659Y-103910000D01*
X61045659Y-103909999D01*
X61040971Y-103856418D01*
X61040499Y-103845610D01*
X61040499Y-103012129D01*
X61040498Y-103012123D01*
X61040497Y-103012116D01*
X61034091Y-102952517D01*
X61031221Y-102944823D01*
X60983797Y-102817671D01*
X60983793Y-102817664D01*
X60897547Y-102702455D01*
X60897544Y-102702452D01*
X60782335Y-102616206D01*
X60782328Y-102616202D01*
X60647482Y-102565908D01*
X60647483Y-102565908D01*
X60587883Y-102559501D01*
X60587881Y-102559500D01*
X60587873Y-102559500D01*
X60587865Y-102559500D01*
X59754383Y-102559500D01*
X59743576Y-102559028D01*
X59690002Y-102554341D01*
X59689999Y-102554341D01*
X59654865Y-102557414D01*
X59636421Y-102559028D01*
X59625616Y-102559500D01*
X58792129Y-102559500D01*
X58792123Y-102559501D01*
X58732516Y-102565908D01*
X58597671Y-102616202D01*
X58597669Y-102616204D01*
X58493894Y-102693890D01*
X58428430Y-102718307D01*
X58360157Y-102703456D01*
X58345272Y-102693890D01*
X58242088Y-102616646D01*
X58242086Y-102616645D01*
X58107379Y-102566403D01*
X58107372Y-102566401D01*
X58047844Y-102560000D01*
X57400000Y-102560000D01*
X57400000Y-103463505D01*
X57295161Y-103415627D01*
X57186473Y-103400000D01*
X57113527Y-103400000D01*
X57004839Y-103415627D01*
X56900000Y-103463505D01*
X56900000Y-102560000D01*
X56252155Y-102560000D01*
X56192627Y-102566401D01*
X56192620Y-102566403D01*
X56057913Y-102616645D01*
X56057910Y-102616647D01*
X55954727Y-102693890D01*
X55889262Y-102718307D01*
X55820989Y-102703455D01*
X55806105Y-102693889D01*
X55702335Y-102616206D01*
X55702328Y-102616202D01*
X55567482Y-102565908D01*
X55567483Y-102565908D01*
X55507883Y-102559501D01*
X55507881Y-102559500D01*
X55507873Y-102559500D01*
X55507865Y-102559500D01*
X54674383Y-102559500D01*
X54663576Y-102559028D01*
X54610002Y-102554341D01*
X54609999Y-102554341D01*
X54574865Y-102557414D01*
X54556421Y-102559028D01*
X54545616Y-102559500D01*
X53712129Y-102559500D01*
X53712123Y-102559501D01*
X53652516Y-102565908D01*
X53517671Y-102616202D01*
X53517664Y-102616206D01*
X53402455Y-102702452D01*
X53402452Y-102702455D01*
X53316206Y-102817664D01*
X53316202Y-102817671D01*
X53265908Y-102952517D01*
X53259557Y-103011595D01*
X53259501Y-103012123D01*
X53259500Y-103012135D01*
X53259500Y-103845618D01*
X53259028Y-103856425D01*
X53254341Y-103909997D01*
X53254341Y-103910001D01*
X49610499Y-103910001D01*
X49610499Y-103242129D01*
X49610498Y-103242123D01*
X49610497Y-103242116D01*
X49604091Y-103182517D01*
X49590101Y-103145009D01*
X49553797Y-103047671D01*
X49553795Y-103047668D01*
X49527195Y-103012135D01*
X49476421Y-102944309D01*
X49452004Y-102878848D01*
X49466855Y-102810575D01*
X49476416Y-102795696D01*
X49553796Y-102692331D01*
X49604091Y-102557483D01*
X49610500Y-102497873D01*
X49610499Y-101664384D01*
X49610971Y-101653576D01*
X49615659Y-101600000D01*
X49615659Y-101599999D01*
X49610971Y-101546421D01*
X49610499Y-101535613D01*
X49610499Y-100702129D01*
X49610498Y-100702123D01*
X49610497Y-100702116D01*
X49604091Y-100642517D01*
X49600783Y-100633649D01*
X49553797Y-100507671D01*
X49553795Y-100507668D01*
X49476109Y-100403893D01*
X49451692Y-100338430D01*
X49466543Y-100270157D01*
X49476110Y-100255271D01*
X49553352Y-100152089D01*
X49553354Y-100152086D01*
X49603596Y-100017379D01*
X49603598Y-100017372D01*
X49609999Y-99957844D01*
X49610000Y-99957827D01*
X49610000Y-99310000D01*
X48705572Y-99310000D01*
X48728682Y-99274040D01*
X48770000Y-99133327D01*
X48770000Y-98986673D01*
X48728682Y-98845960D01*
X48705572Y-98810000D01*
X49610000Y-98810000D01*
X49610000Y-98162172D01*
X49609999Y-98162155D01*
X49603598Y-98102627D01*
X49603596Y-98102620D01*
X49553354Y-97967913D01*
X49553352Y-97967910D01*
X49476110Y-97864729D01*
X49451692Y-97799265D01*
X49466543Y-97730992D01*
X49476105Y-97716111D01*
X49553796Y-97612331D01*
X49604091Y-97477483D01*
X49610500Y-97417873D01*
X49610499Y-96584383D01*
X49610971Y-96573576D01*
X49615659Y-96520000D01*
X49615659Y-96519999D01*
X49610971Y-96466421D01*
X49610499Y-96455613D01*
X49610499Y-95622129D01*
X49610498Y-95622123D01*
X49610497Y-95622116D01*
X49604091Y-95562517D01*
X49599272Y-95549597D01*
X49553797Y-95427671D01*
X49553795Y-95427668D01*
X49476421Y-95324309D01*
X49452004Y-95258848D01*
X49466855Y-95190575D01*
X49476416Y-95175696D01*
X49553796Y-95072331D01*
X49604091Y-94937483D01*
X49610500Y-94877873D01*
X49610499Y-94044383D01*
X49610971Y-94033576D01*
X49615659Y-93980000D01*
X49615659Y-93979999D01*
X49610971Y-93926421D01*
X49610499Y-93915613D01*
X49610499Y-93082129D01*
X49610498Y-93082123D01*
X49610497Y-93082116D01*
X49604091Y-93022517D01*
X49594718Y-92997388D01*
X49553797Y-92887671D01*
X49553795Y-92887668D01*
X49476421Y-92784309D01*
X49452004Y-92718848D01*
X49466855Y-92650575D01*
X49476416Y-92635696D01*
X49553796Y-92532331D01*
X49604091Y-92397483D01*
X49610500Y-92337873D01*
X49610499Y-91504383D01*
X49610971Y-91493576D01*
X49615659Y-91440000D01*
X49615659Y-91439999D01*
X49610971Y-91386421D01*
X49610499Y-91375613D01*
X49610499Y-90542129D01*
X49610498Y-90542123D01*
X49610497Y-90542116D01*
X49604091Y-90482517D01*
X49602556Y-90478402D01*
X49553797Y-90347671D01*
X49553795Y-90347668D01*
X49476421Y-90244309D01*
X49452004Y-90178848D01*
X49466855Y-90110575D01*
X49476416Y-90095696D01*
X49553796Y-89992331D01*
X49604091Y-89857483D01*
X49610500Y-89797873D01*
X49610499Y-88964383D01*
X49610971Y-88953576D01*
X49615659Y-88900000D01*
X49615659Y-88899999D01*
X49610971Y-88846421D01*
X49610499Y-88835613D01*
X49610499Y-88002129D01*
X49610498Y-88002123D01*
X49610497Y-88002116D01*
X49604091Y-87942517D01*
X49572148Y-87856874D01*
X49553797Y-87807671D01*
X49553795Y-87807668D01*
X49476421Y-87704309D01*
X49452004Y-87638848D01*
X49466855Y-87570575D01*
X49476416Y-87555696D01*
X49553796Y-87452331D01*
X49604091Y-87317483D01*
X49610500Y-87257873D01*
X49610499Y-85462128D01*
X49604091Y-85402517D01*
X49553796Y-85267669D01*
X49476421Y-85164309D01*
X49452004Y-85098848D01*
X49466855Y-85030575D01*
X49476416Y-85015696D01*
X49553796Y-84912331D01*
X49604091Y-84777483D01*
X49610500Y-84717873D01*
X49610499Y-83884383D01*
X49610971Y-83873576D01*
X49615659Y-83820000D01*
X49615659Y-83819999D01*
X49610971Y-83766421D01*
X49610499Y-83755613D01*
X49610499Y-82922129D01*
X49610498Y-82922123D01*
X49610497Y-82922116D01*
X49604091Y-82862517D01*
X49599318Y-82849721D01*
X49553797Y-82727671D01*
X49553795Y-82727668D01*
X49549786Y-82722313D01*
X49476421Y-82624309D01*
X49452004Y-82558848D01*
X49466855Y-82490575D01*
X49476416Y-82475696D01*
X49553796Y-82372331D01*
X49604091Y-82237483D01*
X49610500Y-82177873D01*
X49610499Y-81344383D01*
X49610971Y-81333576D01*
X49615659Y-81280000D01*
X49615659Y-81279999D01*
X49610971Y-81226421D01*
X49610499Y-81215613D01*
X49610499Y-80382129D01*
X49610498Y-80382123D01*
X49610497Y-80382116D01*
X49604091Y-80322517D01*
X49553796Y-80187669D01*
X49476421Y-80084309D01*
X49452004Y-80018848D01*
X49466855Y-79950575D01*
X49476416Y-79935696D01*
X49553796Y-79832331D01*
X49604091Y-79697483D01*
X49610500Y-79637873D01*
X49610499Y-78804383D01*
X49610971Y-78793576D01*
X49615659Y-78740000D01*
X49615659Y-78739999D01*
X49610971Y-78686421D01*
X49610499Y-78675613D01*
X49610499Y-77842129D01*
X49610498Y-77842123D01*
X49610497Y-77842116D01*
X49604091Y-77782517D01*
X49576476Y-77708478D01*
X49553797Y-77647671D01*
X49553795Y-77647668D01*
X49476421Y-77544309D01*
X49452004Y-77478848D01*
X49466855Y-77410575D01*
X49476416Y-77395696D01*
X49553796Y-77292331D01*
X49604091Y-77157483D01*
X49610500Y-77097873D01*
X49610499Y-76264383D01*
X49610971Y-76253576D01*
X49615659Y-76200000D01*
X49615659Y-76199999D01*
X49610971Y-76146421D01*
X49610499Y-76135613D01*
X49610499Y-75302129D01*
X49610498Y-75302123D01*
X49610497Y-75302116D01*
X49604091Y-75242517D01*
X49570378Y-75152129D01*
X49553797Y-75107671D01*
X49553795Y-75107668D01*
X49542452Y-75092516D01*
X49476421Y-75004309D01*
X49452004Y-74938848D01*
X49466855Y-74870575D01*
X49476416Y-74855696D01*
X49553796Y-74752331D01*
X49604091Y-74617483D01*
X49610500Y-74557873D01*
X49610499Y-72762128D01*
X49604091Y-72702517D01*
X49553796Y-72567669D01*
X49476421Y-72464309D01*
X49452004Y-72398848D01*
X49466855Y-72330575D01*
X49476416Y-72315696D01*
X49553796Y-72212331D01*
X49604091Y-72077483D01*
X49610500Y-72017873D01*
X49610499Y-71184383D01*
X49610971Y-71173576D01*
X49615659Y-71120000D01*
X49615659Y-71119999D01*
X49610971Y-71066421D01*
X49610499Y-71055613D01*
X49610499Y-70222129D01*
X49610498Y-70222123D01*
X49610497Y-70222116D01*
X49604091Y-70162517D01*
X49553796Y-70027669D01*
X49476421Y-69924309D01*
X49452004Y-69858848D01*
X49466855Y-69790575D01*
X49476416Y-69775696D01*
X49553796Y-69672331D01*
X49604091Y-69537483D01*
X49610500Y-69477873D01*
X49610499Y-68644383D01*
X49610971Y-68633576D01*
X49615659Y-68580000D01*
X49615659Y-68579999D01*
X49610971Y-68526421D01*
X49610499Y-68515613D01*
X49610499Y-67682129D01*
X49610498Y-67682123D01*
X49610497Y-67682116D01*
X49604091Y-67622517D01*
X49553796Y-67487669D01*
X49476421Y-67384309D01*
X49452004Y-67318848D01*
X49466855Y-67250575D01*
X49476416Y-67235696D01*
X49553796Y-67132331D01*
X49604091Y-66997483D01*
X49610500Y-66937873D01*
X49610499Y-66104383D01*
X49610971Y-66093576D01*
X49615659Y-66040000D01*
X49615659Y-66039999D01*
X49610971Y-65986421D01*
X49610499Y-65975613D01*
X49610499Y-65142129D01*
X49610498Y-65142123D01*
X49610497Y-65142116D01*
X49604091Y-65082517D01*
X49594718Y-65057388D01*
X49553797Y-64947671D01*
X49553795Y-64947668D01*
X49476421Y-64844309D01*
X49452004Y-64778848D01*
X49466855Y-64710575D01*
X49476416Y-64695696D01*
X49553796Y-64592331D01*
X49604091Y-64457483D01*
X49610500Y-64397873D01*
X49610499Y-63564383D01*
X49610971Y-63553576D01*
X49615659Y-63500000D01*
X49615659Y-63499999D01*
X49610971Y-63446421D01*
X49610499Y-63435613D01*
X49610499Y-62602129D01*
X49610498Y-62602123D01*
X49610497Y-62602116D01*
X49604091Y-62542517D01*
X49579939Y-62477763D01*
X49553797Y-62407671D01*
X49553795Y-62407668D01*
X49476109Y-62303893D01*
X49451692Y-62238430D01*
X49466543Y-62170157D01*
X49476110Y-62155271D01*
X49553352Y-62052089D01*
X49553354Y-62052086D01*
X49603596Y-61917379D01*
X49603598Y-61917372D01*
X49609999Y-61857844D01*
X49610000Y-61857827D01*
X49610000Y-61210000D01*
X48705572Y-61210000D01*
X48728682Y-61174040D01*
X48770000Y-61033327D01*
X48770000Y-60886673D01*
X48728682Y-60745960D01*
X48705572Y-60710000D01*
X49610000Y-60710000D01*
X49610000Y-60062172D01*
X49609999Y-60062155D01*
X49603598Y-60002627D01*
X49603596Y-60002620D01*
X49553354Y-59867913D01*
X49553352Y-59867910D01*
X49476110Y-59764729D01*
X49451692Y-59699265D01*
X49466543Y-59630992D01*
X49476105Y-59616111D01*
X49553796Y-59512331D01*
X49604091Y-59377483D01*
X49610500Y-59317873D01*
X49610500Y-59040003D01*
X53469723Y-59040003D01*
X53471331Y-59058389D01*
X53471678Y-59074752D01*
X53470709Y-59096324D01*
X53470710Y-59096328D01*
X53481444Y-59175576D01*
X53482094Y-59181412D01*
X53488792Y-59257972D01*
X53488795Y-59257989D01*
X53494461Y-59279134D01*
X53497563Y-59294576D01*
X53500923Y-59319380D01*
X53500926Y-59319392D01*
X53524573Y-59392169D01*
X53526417Y-59398393D01*
X53545423Y-59469324D01*
X53545428Y-59469337D01*
X53556135Y-59492300D01*
X53561682Y-59506380D01*
X53570483Y-59533464D01*
X53590244Y-59570187D01*
X53605128Y-59597845D01*
X53608316Y-59604200D01*
X53637897Y-59667638D01*
X53637898Y-59667639D01*
X53654410Y-59691221D01*
X53662025Y-59703578D01*
X53677146Y-59731678D01*
X53677152Y-59731687D01*
X53720587Y-59786153D01*
X53725214Y-59792340D01*
X53750510Y-59828465D01*
X53763402Y-59846877D01*
X53763405Y-59846880D01*
X53786186Y-59869661D01*
X53795452Y-59880029D01*
X53817492Y-59907666D01*
X53867387Y-59951259D01*
X53873484Y-59956959D01*
X53918116Y-60001592D01*
X53918121Y-60001596D01*
X53918123Y-60001598D01*
X53919583Y-60002620D01*
X53947332Y-60022050D01*
X53957793Y-60030244D01*
X53987004Y-60055765D01*
X53987013Y-60055771D01*
X54040924Y-60087981D01*
X54048449Y-60092854D01*
X54097359Y-60127101D01*
X54097365Y-60127104D01*
X54132798Y-60143627D01*
X54143992Y-60149561D01*
X54180234Y-60171214D01*
X54180236Y-60171215D01*
X54208337Y-60181761D01*
X54235838Y-60192082D01*
X54244669Y-60195792D01*
X54288300Y-60216138D01*
X54295670Y-60219575D01*
X54295675Y-60219577D01*
X54336756Y-60230584D01*
X54348227Y-60234262D01*
X54390976Y-60250307D01*
X54446047Y-60260301D01*
X54455965Y-60262526D01*
X54507023Y-60276207D01*
X54552829Y-60280214D01*
X54564121Y-60281728D01*
X54612453Y-60290500D01*
X54664985Y-60290500D01*
X54675792Y-60290972D01*
X54724998Y-60295277D01*
X54725000Y-60295277D01*
X54775369Y-60290870D01*
X54780600Y-60290524D01*
X54781122Y-60290500D01*
X54781155Y-60290500D01*
X54834217Y-60285724D01*
X54835173Y-60285638D01*
X54835180Y-60285724D01*
X54835477Y-60285611D01*
X54942977Y-60276207D01*
X54942982Y-60276205D01*
X54945000Y-60276029D01*
X54947205Y-60275736D01*
X54949182Y-60275377D01*
X54949188Y-60275377D01*
X55052684Y-60246812D01*
X55053350Y-60246631D01*
X55154330Y-60219575D01*
X55154337Y-60219571D01*
X55158913Y-60217906D01*
X55164449Y-60216138D01*
X55166159Y-60215495D01*
X55166170Y-60215493D01*
X55259890Y-60170359D01*
X55261016Y-60169825D01*
X55352639Y-60127102D01*
X55352640Y-60127101D01*
X55357327Y-60124395D01*
X55357400Y-60124522D01*
X55368164Y-60118218D01*
X55368973Y-60117829D01*
X55450325Y-60058721D01*
X55451993Y-60057531D01*
X55531877Y-60001598D01*
X55532747Y-60000727D01*
X55547550Y-59988084D01*
X55551078Y-59985522D01*
X55618237Y-59915277D01*
X55620098Y-59913376D01*
X55686592Y-59846883D01*
X55686592Y-59846882D01*
X55686598Y-59846877D01*
X55689285Y-59843039D01*
X55701239Y-59828465D01*
X55706629Y-59822828D01*
X55706628Y-59822828D01*
X55706632Y-59822825D01*
X55758266Y-59744600D01*
X55760083Y-59741928D01*
X55812102Y-59667639D01*
X55815543Y-59660259D01*
X55824432Y-59644364D01*
X55830635Y-59634968D01*
X55866114Y-59551958D01*
X55867713Y-59548377D01*
X55904575Y-59469330D01*
X55907570Y-59458148D01*
X55913325Y-59441505D01*
X55919103Y-59427988D01*
X55938417Y-59343366D01*
X55939533Y-59338863D01*
X55961207Y-59257977D01*
X55962515Y-59243015D01*
X55965150Y-59226237D01*
X55969191Y-59208537D01*
X55972934Y-59125183D01*
X55973274Y-59120036D01*
X55980277Y-59040003D01*
X58319723Y-59040003D01*
X58321331Y-59058389D01*
X58321678Y-59074752D01*
X58320709Y-59096324D01*
X58320710Y-59096328D01*
X58331444Y-59175576D01*
X58332094Y-59181412D01*
X58338792Y-59257972D01*
X58338795Y-59257989D01*
X58344461Y-59279134D01*
X58347563Y-59294576D01*
X58350923Y-59319380D01*
X58350926Y-59319392D01*
X58374573Y-59392169D01*
X58376417Y-59398393D01*
X58395423Y-59469324D01*
X58395428Y-59469337D01*
X58406135Y-59492300D01*
X58411682Y-59506380D01*
X58420483Y-59533464D01*
X58440244Y-59570187D01*
X58455128Y-59597845D01*
X58458316Y-59604200D01*
X58487897Y-59667638D01*
X58487898Y-59667639D01*
X58504410Y-59691221D01*
X58512025Y-59703578D01*
X58527146Y-59731678D01*
X58527152Y-59731687D01*
X58570587Y-59786153D01*
X58575214Y-59792340D01*
X58600510Y-59828465D01*
X58613402Y-59846877D01*
X58613405Y-59846880D01*
X58636186Y-59869661D01*
X58645452Y-59880029D01*
X58667492Y-59907666D01*
X58717387Y-59951259D01*
X58723484Y-59956959D01*
X58768116Y-60001592D01*
X58768121Y-60001596D01*
X58768123Y-60001598D01*
X58769583Y-60002620D01*
X58797332Y-60022050D01*
X58807793Y-60030244D01*
X58837004Y-60055765D01*
X58837013Y-60055771D01*
X58890924Y-60087981D01*
X58898449Y-60092854D01*
X58947359Y-60127101D01*
X58947365Y-60127104D01*
X58982798Y-60143627D01*
X58993992Y-60149561D01*
X59030234Y-60171214D01*
X59030236Y-60171215D01*
X59058337Y-60181761D01*
X59085838Y-60192082D01*
X59094669Y-60195792D01*
X59138300Y-60216138D01*
X59145670Y-60219575D01*
X59145675Y-60219577D01*
X59186756Y-60230584D01*
X59198227Y-60234262D01*
X59240976Y-60250307D01*
X59296047Y-60260301D01*
X59305965Y-60262526D01*
X59357023Y-60276207D01*
X59402829Y-60280214D01*
X59414121Y-60281728D01*
X59462453Y-60290500D01*
X59514985Y-60290500D01*
X59525792Y-60290972D01*
X59574998Y-60295277D01*
X59575000Y-60295277D01*
X59625369Y-60290870D01*
X59630600Y-60290524D01*
X59631122Y-60290500D01*
X59631155Y-60290500D01*
X59684217Y-60285724D01*
X59685173Y-60285638D01*
X59685180Y-60285724D01*
X59685477Y-60285611D01*
X59792977Y-60276207D01*
X59792982Y-60276205D01*
X59795000Y-60276029D01*
X59797205Y-60275736D01*
X59799182Y-60275377D01*
X59799188Y-60275377D01*
X59902684Y-60246812D01*
X59903350Y-60246631D01*
X60004330Y-60219575D01*
X60004337Y-60219571D01*
X60008913Y-60217906D01*
X60014449Y-60216138D01*
X60016159Y-60215495D01*
X60016170Y-60215493D01*
X60109890Y-60170359D01*
X60111016Y-60169825D01*
X60202639Y-60127102D01*
X60202640Y-60127101D01*
X60207327Y-60124395D01*
X60207400Y-60124522D01*
X60218164Y-60118218D01*
X60218973Y-60117829D01*
X60300325Y-60058721D01*
X60301993Y-60057531D01*
X60381877Y-60001598D01*
X60382747Y-60000727D01*
X60397550Y-59988084D01*
X60401078Y-59985522D01*
X60468237Y-59915277D01*
X60470098Y-59913376D01*
X60536592Y-59846883D01*
X60536592Y-59846882D01*
X60536598Y-59846877D01*
X60539285Y-59843039D01*
X60551239Y-59828465D01*
X60556629Y-59822828D01*
X60556628Y-59822828D01*
X60556632Y-59822825D01*
X60608266Y-59744600D01*
X60610083Y-59741928D01*
X60662102Y-59667639D01*
X60665543Y-59660259D01*
X60674432Y-59644364D01*
X60680635Y-59634968D01*
X60716114Y-59551958D01*
X60717713Y-59548377D01*
X60754575Y-59469330D01*
X60757570Y-59458148D01*
X60763325Y-59441505D01*
X60769103Y-59427988D01*
X60788417Y-59343366D01*
X60789533Y-59338863D01*
X60811207Y-59257977D01*
X60812515Y-59243015D01*
X60815150Y-59226237D01*
X60819191Y-59208537D01*
X60822934Y-59125183D01*
X60823274Y-59120036D01*
X60830277Y-59040000D01*
X60828667Y-59021608D01*
X60828321Y-59005239D01*
X60829290Y-58983670D01*
X60818549Y-58904385D01*
X60817905Y-58898600D01*
X60811207Y-58822023D01*
X60805539Y-58800870D01*
X60802434Y-58785412D01*
X60799076Y-58760619D01*
X60799075Y-58760618D01*
X60799075Y-58760613D01*
X60775414Y-58687795D01*
X60773578Y-58681593D01*
X60754576Y-58610674D01*
X60754575Y-58610671D01*
X60754575Y-58610670D01*
X60743863Y-58587699D01*
X60738317Y-58573618D01*
X60729519Y-58546541D01*
X60729517Y-58546537D01*
X60729517Y-58546536D01*
X60694869Y-58482149D01*
X60691681Y-58475794D01*
X60669398Y-58428009D01*
X60662102Y-58412362D01*
X60645592Y-58388785D01*
X60637976Y-58376425D01*
X60632594Y-58366423D01*
X60622852Y-58348319D01*
X60579398Y-58293830D01*
X60574785Y-58287661D01*
X60536598Y-58233123D01*
X60513804Y-58210329D01*
X60504545Y-58199968D01*
X60482506Y-58172332D01*
X60432611Y-58128739D01*
X60426514Y-58123039D01*
X60381878Y-58078402D01*
X60352663Y-58057946D01*
X60342210Y-58049759D01*
X60312996Y-58024235D01*
X60310156Y-58022538D01*
X60259073Y-57992017D01*
X60251550Y-57987145D01*
X60202641Y-57952899D01*
X60167205Y-57936374D01*
X60156015Y-57930442D01*
X60119769Y-57908787D01*
X60119767Y-57908786D01*
X60111951Y-57905852D01*
X60064154Y-57887914D01*
X60055349Y-57884216D01*
X60004330Y-57860425D01*
X59963232Y-57849412D01*
X59951759Y-57845731D01*
X59909024Y-57829692D01*
X59853965Y-57819700D01*
X59844016Y-57817468D01*
X59792977Y-57803793D01*
X59747176Y-57799785D01*
X59735846Y-57798264D01*
X59687552Y-57789500D01*
X59687547Y-57789500D01*
X59635015Y-57789500D01*
X59624208Y-57789028D01*
X59575002Y-57784723D01*
X59574996Y-57784723D01*
X59524651Y-57789127D01*
X59519442Y-57789473D01*
X59518848Y-57789499D01*
X59464915Y-57794352D01*
X59464613Y-57794379D01*
X59367239Y-57802899D01*
X59357023Y-57803793D01*
X59357022Y-57803793D01*
X59355081Y-57803963D01*
X59352708Y-57804278D01*
X59350809Y-57804623D01*
X59247522Y-57833129D01*
X59246628Y-57833372D01*
X59145668Y-57860425D01*
X59141051Y-57862105D01*
X59135520Y-57863872D01*
X59133836Y-57864504D01*
X59040246Y-57909573D01*
X59038853Y-57910233D01*
X58947359Y-57952899D01*
X58942670Y-57955606D01*
X58942598Y-57955481D01*
X58931871Y-57961764D01*
X58931031Y-57962168D01*
X58849662Y-58021284D01*
X58847904Y-58022538D01*
X58768121Y-58078403D01*
X58767241Y-58079284D01*
X58752461Y-58091906D01*
X58748928Y-58094472D01*
X58748921Y-58094478D01*
X58681847Y-58164632D01*
X58679903Y-58166619D01*
X58613404Y-58233119D01*
X58613402Y-58233121D01*
X58610711Y-58236965D01*
X58598773Y-58251521D01*
X58593368Y-58257174D01*
X58573253Y-58287647D01*
X58541750Y-58335369D01*
X58539865Y-58338142D01*
X58487901Y-58412356D01*
X58487891Y-58412374D01*
X58484457Y-58419738D01*
X58475572Y-58435628D01*
X58469363Y-58445034D01*
X58433893Y-58528020D01*
X58432254Y-58531688D01*
X58395426Y-58610664D01*
X58395424Y-58610671D01*
X58392425Y-58621860D01*
X58386681Y-58638475D01*
X58380899Y-58652005D01*
X58380896Y-58652014D01*
X58361576Y-58736659D01*
X58360460Y-58741158D01*
X58338793Y-58822022D01*
X58337483Y-58836992D01*
X58334847Y-58853769D01*
X58330809Y-58871459D01*
X58330809Y-58871464D01*
X58327066Y-58954777D01*
X58326719Y-58960016D01*
X58319723Y-59039995D01*
X58319723Y-59040003D01*
X55980277Y-59040003D01*
X55980277Y-59040000D01*
X55978667Y-59021608D01*
X55978321Y-59005239D01*
X55979290Y-58983670D01*
X55968549Y-58904385D01*
X55967905Y-58898600D01*
X55961207Y-58822023D01*
X55955539Y-58800870D01*
X55952434Y-58785412D01*
X55949076Y-58760619D01*
X55949075Y-58760618D01*
X55949075Y-58760613D01*
X55925414Y-58687795D01*
X55923578Y-58681593D01*
X55904576Y-58610674D01*
X55904575Y-58610671D01*
X55904575Y-58610670D01*
X55893863Y-58587699D01*
X55888317Y-58573618D01*
X55879519Y-58546541D01*
X55879517Y-58546537D01*
X55879517Y-58546536D01*
X55844869Y-58482149D01*
X55841681Y-58475794D01*
X55819398Y-58428009D01*
X55812102Y-58412362D01*
X55795592Y-58388785D01*
X55787976Y-58376425D01*
X55782594Y-58366423D01*
X55772852Y-58348319D01*
X55729398Y-58293830D01*
X55724785Y-58287661D01*
X55686598Y-58233123D01*
X55663804Y-58210329D01*
X55654545Y-58199968D01*
X55632506Y-58172332D01*
X55582611Y-58128739D01*
X55576514Y-58123039D01*
X55531878Y-58078402D01*
X55502663Y-58057946D01*
X55492210Y-58049759D01*
X55462996Y-58024235D01*
X55460156Y-58022538D01*
X55409073Y-57992017D01*
X55401550Y-57987145D01*
X55352641Y-57952899D01*
X55317205Y-57936374D01*
X55306015Y-57930442D01*
X55269769Y-57908787D01*
X55269767Y-57908786D01*
X55261951Y-57905852D01*
X55214154Y-57887914D01*
X55205349Y-57884216D01*
X55154330Y-57860425D01*
X55113232Y-57849412D01*
X55101759Y-57845731D01*
X55059024Y-57829692D01*
X55003965Y-57819700D01*
X54994016Y-57817468D01*
X54942977Y-57803793D01*
X54897176Y-57799785D01*
X54885846Y-57798264D01*
X54837552Y-57789500D01*
X54837547Y-57789500D01*
X54785015Y-57789500D01*
X54774208Y-57789028D01*
X54725002Y-57784723D01*
X54724996Y-57784723D01*
X54674651Y-57789127D01*
X54669442Y-57789473D01*
X54668848Y-57789499D01*
X54614915Y-57794352D01*
X54614613Y-57794379D01*
X54517239Y-57802899D01*
X54507023Y-57803793D01*
X54507022Y-57803793D01*
X54505081Y-57803963D01*
X54502708Y-57804278D01*
X54500809Y-57804623D01*
X54397522Y-57833129D01*
X54396628Y-57833372D01*
X54295668Y-57860425D01*
X54291051Y-57862105D01*
X54285520Y-57863872D01*
X54283836Y-57864504D01*
X54190246Y-57909573D01*
X54188853Y-57910233D01*
X54097359Y-57952899D01*
X54092670Y-57955606D01*
X54092598Y-57955481D01*
X54081871Y-57961764D01*
X54081031Y-57962168D01*
X53999662Y-58021284D01*
X53997904Y-58022538D01*
X53918121Y-58078403D01*
X53917241Y-58079284D01*
X53902461Y-58091906D01*
X53898928Y-58094472D01*
X53898921Y-58094478D01*
X53831847Y-58164632D01*
X53829903Y-58166619D01*
X53763404Y-58233119D01*
X53763402Y-58233121D01*
X53760711Y-58236965D01*
X53748773Y-58251521D01*
X53743368Y-58257174D01*
X53723253Y-58287647D01*
X53691750Y-58335369D01*
X53689865Y-58338142D01*
X53637901Y-58412356D01*
X53637891Y-58412374D01*
X53634457Y-58419738D01*
X53625572Y-58435628D01*
X53619363Y-58445034D01*
X53583893Y-58528020D01*
X53582254Y-58531688D01*
X53545426Y-58610664D01*
X53545424Y-58610671D01*
X53542425Y-58621860D01*
X53536681Y-58638475D01*
X53530899Y-58652005D01*
X53530896Y-58652014D01*
X53511576Y-58736659D01*
X53510460Y-58741158D01*
X53488793Y-58822022D01*
X53487483Y-58836992D01*
X53484847Y-58853769D01*
X53480809Y-58871459D01*
X53480809Y-58871464D01*
X53477066Y-58954777D01*
X53476719Y-58960016D01*
X53469723Y-59039995D01*
X53469723Y-59040003D01*
X49610500Y-59040003D01*
X49610499Y-58484383D01*
X49610971Y-58473576D01*
X49613469Y-58445034D01*
X49615659Y-58420000D01*
X49612406Y-58382827D01*
X49610971Y-58366421D01*
X49610499Y-58355613D01*
X49610499Y-57522129D01*
X49610498Y-57522123D01*
X49610497Y-57522116D01*
X49604091Y-57462517D01*
X49587576Y-57418239D01*
X49553797Y-57327671D01*
X49553795Y-57327668D01*
X49476421Y-57224309D01*
X49452004Y-57158848D01*
X49466855Y-57090575D01*
X49476416Y-57075696D01*
X49553796Y-56972331D01*
X49604091Y-56837483D01*
X49610500Y-56777873D01*
X49610499Y-56009998D01*
X53019700Y-56009998D01*
X53026750Y-56095098D01*
X53027061Y-56100071D01*
X53030819Y-56188523D01*
X53030820Y-56188534D01*
X53035092Y-56208355D01*
X53037451Y-56224238D01*
X53038865Y-56241301D01*
X53038865Y-56241306D01*
X53060660Y-56327372D01*
X53061670Y-56331685D01*
X53081044Y-56421575D01*
X53081046Y-56421582D01*
X53087333Y-56437228D01*
X53092477Y-56453010D01*
X53095843Y-56466300D01*
X53132337Y-56549500D01*
X53132875Y-56550725D01*
X53134370Y-56554284D01*
X53136828Y-56560400D01*
X53169934Y-56642787D01*
X53169935Y-56642788D01*
X53176981Y-56654232D01*
X53184943Y-56669428D01*
X53189076Y-56678850D01*
X53241366Y-56758886D01*
X53243147Y-56761693D01*
X53294930Y-56845794D01*
X53301543Y-56853308D01*
X53312263Y-56867402D01*
X53316019Y-56873151D01*
X53316021Y-56873153D01*
X53383117Y-56946040D01*
X53384930Y-56948054D01*
X53452436Y-57024755D01*
X53457564Y-57028895D01*
X53470882Y-57041377D01*
X53473216Y-57043913D01*
X53549875Y-57103578D01*
X53554062Y-57106837D01*
X53555795Y-57108211D01*
X53637920Y-57174523D01*
X53637922Y-57174524D01*
X53640678Y-57176064D01*
X53656360Y-57186460D01*
X53656367Y-57186465D01*
X53656371Y-57186467D01*
X53656374Y-57186470D01*
X53749507Y-57236870D01*
X53750785Y-57237573D01*
X53830669Y-57282200D01*
X53846051Y-57290793D01*
X53848849Y-57292058D01*
X53855695Y-57295097D01*
X53855794Y-57294873D01*
X53860491Y-57296933D01*
X53860497Y-57296936D01*
X53963950Y-57332451D01*
X53964557Y-57332662D01*
X54070829Y-57370211D01*
X54070843Y-57370213D01*
X54072392Y-57370617D01*
X54078492Y-57371910D01*
X54079999Y-57372291D01*
X54080019Y-57372298D01*
X54191192Y-57390849D01*
X54191608Y-57390919D01*
X54217416Y-57395345D01*
X54305792Y-57410499D01*
X54305800Y-57410500D01*
X54541044Y-57410500D01*
X54541049Y-57410500D01*
X54595013Y-57401494D01*
X54604883Y-57400252D01*
X54662541Y-57395346D01*
X54711925Y-57382487D01*
X54722760Y-57380177D01*
X54769981Y-57372298D01*
X54824963Y-57353421D01*
X54833941Y-57350716D01*
X54893249Y-57335275D01*
X54936642Y-57315659D01*
X54947436Y-57311377D01*
X54989503Y-57296936D01*
X55043611Y-57267653D01*
X55051541Y-57263721D01*
X55110486Y-57237077D01*
X55147120Y-57212316D01*
X55157503Y-57206018D01*
X55193626Y-57186470D01*
X55244878Y-57146578D01*
X55251584Y-57141710D01*
X55308003Y-57103579D01*
X55337460Y-57075345D01*
X55347075Y-57067035D01*
X55376784Y-57043913D01*
X55423070Y-56993632D01*
X55428490Y-56988100D01*
X55480118Y-56938621D01*
X55502351Y-56908557D01*
X55510799Y-56898331D01*
X55533979Y-56873153D01*
X55573223Y-56813084D01*
X55577317Y-56807196D01*
X55621879Y-56746947D01*
X55637176Y-56716604D01*
X55644074Y-56704637D01*
X55660924Y-56678849D01*
X55691130Y-56609984D01*
X55693927Y-56604045D01*
X55729207Y-56534074D01*
X55738155Y-56504854D01*
X55743153Y-56491383D01*
X55754157Y-56466300D01*
X55773450Y-56390110D01*
X55775088Y-56384255D01*
X55781426Y-56363559D01*
X55799016Y-56306123D01*
X55802460Y-56279225D01*
X55805251Y-56264535D01*
X55811132Y-56241311D01*
X55811134Y-56241305D01*
X55817903Y-56159600D01*
X55818484Y-56154095D01*
X55829298Y-56069654D01*
X55828291Y-56045961D01*
X55828602Y-56030481D01*
X55830300Y-56010000D01*
X55830300Y-56009998D01*
X58469700Y-56009998D01*
X58476750Y-56095098D01*
X58477061Y-56100071D01*
X58480819Y-56188523D01*
X58480820Y-56188534D01*
X58485092Y-56208355D01*
X58487451Y-56224238D01*
X58488865Y-56241301D01*
X58488865Y-56241306D01*
X58510660Y-56327372D01*
X58511670Y-56331685D01*
X58531044Y-56421575D01*
X58531046Y-56421582D01*
X58537333Y-56437228D01*
X58542477Y-56453010D01*
X58545843Y-56466300D01*
X58582337Y-56549500D01*
X58582875Y-56550725D01*
X58584370Y-56554284D01*
X58586828Y-56560400D01*
X58619934Y-56642787D01*
X58619935Y-56642788D01*
X58626981Y-56654232D01*
X58634943Y-56669428D01*
X58639076Y-56678850D01*
X58691366Y-56758886D01*
X58693147Y-56761693D01*
X58744930Y-56845794D01*
X58751543Y-56853308D01*
X58762263Y-56867402D01*
X58766019Y-56873151D01*
X58766021Y-56873153D01*
X58833117Y-56946040D01*
X58834930Y-56948054D01*
X58902436Y-57024755D01*
X58907564Y-57028895D01*
X58920882Y-57041377D01*
X58923216Y-57043913D01*
X58999875Y-57103578D01*
X59004062Y-57106837D01*
X59005795Y-57108211D01*
X59087920Y-57174523D01*
X59087922Y-57174524D01*
X59090678Y-57176064D01*
X59106360Y-57186460D01*
X59106367Y-57186465D01*
X59106371Y-57186467D01*
X59106374Y-57186470D01*
X59199507Y-57236870D01*
X59200785Y-57237573D01*
X59280669Y-57282200D01*
X59296051Y-57290793D01*
X59298849Y-57292058D01*
X59305695Y-57295097D01*
X59305794Y-57294873D01*
X59310491Y-57296933D01*
X59310497Y-57296936D01*
X59413950Y-57332451D01*
X59414557Y-57332662D01*
X59520829Y-57370211D01*
X59520843Y-57370213D01*
X59522392Y-57370617D01*
X59528492Y-57371910D01*
X59529999Y-57372291D01*
X59530019Y-57372298D01*
X59641192Y-57390849D01*
X59641608Y-57390919D01*
X59667416Y-57395345D01*
X59755792Y-57410499D01*
X59755800Y-57410500D01*
X59991044Y-57410500D01*
X59991049Y-57410500D01*
X60045013Y-57401494D01*
X60054883Y-57400252D01*
X60112541Y-57395346D01*
X60161925Y-57382487D01*
X60172760Y-57380177D01*
X60219981Y-57372298D01*
X60274963Y-57353421D01*
X60283941Y-57350716D01*
X60343249Y-57335275D01*
X60386642Y-57315659D01*
X60397436Y-57311377D01*
X60439503Y-57296936D01*
X60493611Y-57267653D01*
X60501541Y-57263721D01*
X60560486Y-57237077D01*
X60597120Y-57212316D01*
X60607503Y-57206018D01*
X60643626Y-57186470D01*
X60694878Y-57146578D01*
X60701584Y-57141710D01*
X60758003Y-57103579D01*
X60787460Y-57075345D01*
X60797075Y-57067035D01*
X60826784Y-57043913D01*
X60873070Y-56993632D01*
X60878490Y-56988100D01*
X60930118Y-56938621D01*
X60952351Y-56908557D01*
X60960799Y-56898331D01*
X60983979Y-56873153D01*
X61023223Y-56813084D01*
X61027317Y-56807196D01*
X61071879Y-56746947D01*
X61087176Y-56716604D01*
X61094074Y-56704637D01*
X61110924Y-56678849D01*
X61141130Y-56609984D01*
X61143927Y-56604045D01*
X61179207Y-56534074D01*
X61188155Y-56504854D01*
X61193153Y-56491383D01*
X61204157Y-56466300D01*
X61223450Y-56390110D01*
X61225088Y-56384255D01*
X61231426Y-56363559D01*
X61249016Y-56306123D01*
X61252460Y-56279225D01*
X61255251Y-56264535D01*
X61261132Y-56241311D01*
X61261134Y-56241305D01*
X61267903Y-56159600D01*
X61268484Y-56154095D01*
X61279298Y-56069654D01*
X61278291Y-56045961D01*
X61278602Y-56030481D01*
X61280300Y-56010000D01*
X61273248Y-55924902D01*
X61272938Y-55919943D01*
X61271241Y-55880002D01*
X61269180Y-55831468D01*
X61264906Y-55811640D01*
X61262548Y-55795764D01*
X61261134Y-55778695D01*
X61259473Y-55772138D01*
X61253411Y-55748198D01*
X61239325Y-55692577D01*
X61238336Y-55688354D01*
X61218954Y-55598419D01*
X61212665Y-55582770D01*
X61207519Y-55566980D01*
X61204157Y-55553700D01*
X61167092Y-55469202D01*
X61165621Y-55465697D01*
X61130064Y-55377210D01*
X61123021Y-55365771D01*
X61115053Y-55350565D01*
X61110924Y-55341151D01*
X61058639Y-55261122D01*
X61056859Y-55258315D01*
X61005074Y-55174212D01*
X61005071Y-55174209D01*
X61005069Y-55174205D01*
X60998451Y-55166686D01*
X60987727Y-55152584D01*
X60983980Y-55146848D01*
X60960407Y-55121241D01*
X60916876Y-55073953D01*
X60915068Y-55071944D01*
X60847565Y-54995246D01*
X60842439Y-54991107D01*
X60829117Y-54978621D01*
X60826785Y-54976088D01*
X60826783Y-54976086D01*
X60745936Y-54913161D01*
X60744198Y-54911783D01*
X60662080Y-54845477D01*
X60662073Y-54845472D01*
X60659311Y-54843929D01*
X60643643Y-54833542D01*
X60643634Y-54833535D01*
X60643628Y-54833532D01*
X60643626Y-54833530D01*
X60550485Y-54783125D01*
X60549094Y-54782359D01*
X60453961Y-54729213D01*
X60451381Y-54728047D01*
X60444284Y-54724898D01*
X60444188Y-54725119D01*
X60439499Y-54723062D01*
X60336278Y-54687626D01*
X60335233Y-54687262D01*
X60229172Y-54649789D01*
X60227635Y-54649389D01*
X60221549Y-54648098D01*
X60219995Y-54647704D01*
X60108772Y-54629144D01*
X60108227Y-54629051D01*
X59994210Y-54609500D01*
X59994200Y-54609500D01*
X59991049Y-54609500D01*
X59758951Y-54609500D01*
X59704993Y-54618503D01*
X59695101Y-54619747D01*
X59637470Y-54624652D01*
X59637461Y-54624653D01*
X59588077Y-54637511D01*
X59577250Y-54639819D01*
X59530012Y-54647703D01*
X59475068Y-54666566D01*
X59466051Y-54669284D01*
X59406749Y-54684725D01*
X59406743Y-54684727D01*
X59363361Y-54704337D01*
X59352553Y-54708624D01*
X59310504Y-54723060D01*
X59310498Y-54723063D01*
X59256396Y-54752341D01*
X59248460Y-54756275D01*
X59189514Y-54782922D01*
X59152883Y-54807679D01*
X59142470Y-54813994D01*
X59106379Y-54833526D01*
X59106367Y-54833533D01*
X59055126Y-54873416D01*
X59048402Y-54878297D01*
X58992001Y-54916417D01*
X58991994Y-54916423D01*
X58962546Y-54944644D01*
X58952918Y-54952967D01*
X58923217Y-54976085D01*
X58923209Y-54976093D01*
X58876925Y-55026369D01*
X58871500Y-55031905D01*
X58819882Y-55081378D01*
X58819880Y-55081380D01*
X58797657Y-55111427D01*
X58789198Y-55121668D01*
X58766021Y-55146846D01*
X58726781Y-55206906D01*
X58722671Y-55212814D01*
X58678124Y-55273047D01*
X58678119Y-55273055D01*
X58662826Y-55303384D01*
X58655918Y-55315370D01*
X58639076Y-55341149D01*
X58608887Y-55409974D01*
X58606060Y-55415975D01*
X58579189Y-55469274D01*
X58570791Y-55485930D01*
X58561847Y-55515131D01*
X58556842Y-55528620D01*
X58545845Y-55553691D01*
X58545845Y-55553692D01*
X58526552Y-55629872D01*
X58524913Y-55635735D01*
X58500984Y-55713877D01*
X58500983Y-55713879D01*
X58497538Y-55740777D01*
X58494750Y-55755454D01*
X58488867Y-55778687D01*
X58488864Y-55778706D01*
X58482097Y-55860377D01*
X58481517Y-55865887D01*
X58470702Y-55950344D01*
X58470701Y-55950345D01*
X58471707Y-55974025D01*
X58471396Y-55989520D01*
X58469700Y-56009998D01*
X55830300Y-56009998D01*
X55823248Y-55924902D01*
X55822938Y-55919943D01*
X55821241Y-55880002D01*
X55819180Y-55831468D01*
X55814906Y-55811640D01*
X55812548Y-55795764D01*
X55811134Y-55778695D01*
X55809473Y-55772138D01*
X55803411Y-55748198D01*
X55789325Y-55692577D01*
X55788336Y-55688354D01*
X55768954Y-55598419D01*
X55762665Y-55582770D01*
X55757519Y-55566980D01*
X55754157Y-55553700D01*
X55717092Y-55469202D01*
X55715621Y-55465697D01*
X55680064Y-55377210D01*
X55673021Y-55365771D01*
X55665053Y-55350565D01*
X55660924Y-55341151D01*
X55608639Y-55261122D01*
X55606859Y-55258315D01*
X55555074Y-55174212D01*
X55555071Y-55174209D01*
X55555069Y-55174205D01*
X55548451Y-55166686D01*
X55537727Y-55152584D01*
X55533980Y-55146848D01*
X55510407Y-55121241D01*
X55466876Y-55073953D01*
X55465068Y-55071944D01*
X55397565Y-54995246D01*
X55392439Y-54991107D01*
X55379117Y-54978621D01*
X55376785Y-54976088D01*
X55376783Y-54976086D01*
X55295936Y-54913161D01*
X55294198Y-54911783D01*
X55212080Y-54845477D01*
X55212073Y-54845472D01*
X55209311Y-54843929D01*
X55193643Y-54833542D01*
X55193634Y-54833535D01*
X55193628Y-54833532D01*
X55193626Y-54833530D01*
X55100485Y-54783125D01*
X55099094Y-54782359D01*
X55003961Y-54729213D01*
X55001381Y-54728047D01*
X54994284Y-54724898D01*
X54994188Y-54725119D01*
X54989499Y-54723062D01*
X54886278Y-54687626D01*
X54885233Y-54687262D01*
X54779172Y-54649789D01*
X54777635Y-54649389D01*
X54771549Y-54648098D01*
X54769995Y-54647704D01*
X54658772Y-54629144D01*
X54658227Y-54629051D01*
X54544210Y-54609500D01*
X54544200Y-54609500D01*
X54541049Y-54609500D01*
X54308951Y-54609500D01*
X54254993Y-54618503D01*
X54245101Y-54619747D01*
X54187470Y-54624652D01*
X54187461Y-54624653D01*
X54138077Y-54637511D01*
X54127250Y-54639819D01*
X54080012Y-54647703D01*
X54025068Y-54666566D01*
X54016051Y-54669284D01*
X53956749Y-54684725D01*
X53956743Y-54684727D01*
X53913361Y-54704337D01*
X53902553Y-54708624D01*
X53860504Y-54723060D01*
X53860498Y-54723063D01*
X53806396Y-54752341D01*
X53798460Y-54756275D01*
X53739514Y-54782922D01*
X53702883Y-54807679D01*
X53692470Y-54813994D01*
X53656379Y-54833526D01*
X53656367Y-54833533D01*
X53605126Y-54873416D01*
X53598402Y-54878297D01*
X53542001Y-54916417D01*
X53541994Y-54916423D01*
X53512546Y-54944644D01*
X53502918Y-54952967D01*
X53473217Y-54976085D01*
X53473209Y-54976093D01*
X53426925Y-55026369D01*
X53421500Y-55031905D01*
X53369882Y-55081378D01*
X53369880Y-55081380D01*
X53347657Y-55111427D01*
X53339198Y-55121668D01*
X53316021Y-55146846D01*
X53276781Y-55206906D01*
X53272671Y-55212814D01*
X53228124Y-55273047D01*
X53228119Y-55273055D01*
X53212826Y-55303384D01*
X53205918Y-55315370D01*
X53189076Y-55341149D01*
X53158887Y-55409974D01*
X53156060Y-55415975D01*
X53129189Y-55469274D01*
X53120791Y-55485930D01*
X53111847Y-55515131D01*
X53106842Y-55528620D01*
X53095845Y-55553691D01*
X53095845Y-55553692D01*
X53076552Y-55629872D01*
X53074913Y-55635735D01*
X53050984Y-55713877D01*
X53050983Y-55713879D01*
X53047538Y-55740777D01*
X53044750Y-55755454D01*
X53038867Y-55778687D01*
X53038864Y-55778706D01*
X53032097Y-55860377D01*
X53031517Y-55865887D01*
X53020702Y-55950344D01*
X53020701Y-55950345D01*
X53021707Y-55974025D01*
X53021396Y-55989520D01*
X53019700Y-56009998D01*
X49610499Y-56009998D01*
X49610499Y-55944383D01*
X49610971Y-55933576D01*
X49615659Y-55880000D01*
X49615659Y-55879999D01*
X49610971Y-55826421D01*
X49610499Y-55815613D01*
X49610499Y-54982129D01*
X49610498Y-54982123D01*
X49610497Y-54982116D01*
X49604091Y-54922517D01*
X49601817Y-54916421D01*
X49553797Y-54787671D01*
X49553793Y-54787664D01*
X49467547Y-54672455D01*
X49467544Y-54672452D01*
X49352335Y-54586206D01*
X49352328Y-54586202D01*
X49217482Y-54535908D01*
X49217483Y-54535908D01*
X49157883Y-54529501D01*
X49157881Y-54529500D01*
X49157873Y-54529500D01*
X49157865Y-54529500D01*
X48324380Y-54529500D01*
X48313573Y-54529028D01*
X48287024Y-54526705D01*
X48260001Y-54524341D01*
X48259998Y-54524341D01*
X48206424Y-54529028D01*
X48195617Y-54529500D01*
X45562129Y-54529500D01*
X45562123Y-54529501D01*
X45502516Y-54535908D01*
X45367671Y-54586202D01*
X45367664Y-54586206D01*
X45252455Y-54672452D01*
X45252452Y-54672455D01*
X45166206Y-54787664D01*
X45166202Y-54787671D01*
X45115908Y-54922517D01*
X45109877Y-54978621D01*
X45109501Y-54982123D01*
X45109500Y-54982135D01*
X45109500Y-56777870D01*
X45109501Y-56777876D01*
X45115908Y-56837483D01*
X45166202Y-56972328D01*
X45166203Y-56972330D01*
X45166204Y-56972331D01*
X45243576Y-57075687D01*
X45243578Y-57075689D01*
X45267995Y-57141153D01*
X45253144Y-57209426D01*
X45243578Y-57224309D01*
X45233168Y-57238216D01*
X45166203Y-57327669D01*
X45166202Y-57327671D01*
X45115908Y-57462517D01*
X45109501Y-57522116D01*
X45109501Y-57522123D01*
X45109500Y-57522135D01*
X45109500Y-59317870D01*
X45109501Y-59317876D01*
X45115908Y-59377483D01*
X45166202Y-59512328D01*
X45166206Y-59512335D01*
X45243889Y-59616105D01*
X45268307Y-59681569D01*
X45253456Y-59749842D01*
X45243890Y-59764727D01*
X45166647Y-59867910D01*
X45166645Y-59867913D01*
X45116403Y-60002620D01*
X45116401Y-60002627D01*
X45110000Y-60062155D01*
X45110000Y-60710000D01*
X47814428Y-60710000D01*
X47791318Y-60745960D01*
X47750000Y-60886673D01*
X47750000Y-61033327D01*
X47791318Y-61174040D01*
X47814428Y-61210000D01*
X45110000Y-61210000D01*
X45110000Y-61857844D01*
X45116401Y-61917372D01*
X45116403Y-61917379D01*
X45166645Y-62052086D01*
X45166646Y-62052088D01*
X45243890Y-62155272D01*
X45268307Y-62220736D01*
X45253456Y-62289009D01*
X45243890Y-62303894D01*
X45166204Y-62407669D01*
X45166202Y-62407671D01*
X45115908Y-62542517D01*
X45110630Y-62591613D01*
X45109501Y-62602123D01*
X45109500Y-62602135D01*
X45109500Y-64397870D01*
X45109501Y-64397876D01*
X45115908Y-64457483D01*
X45166202Y-64592328D01*
X45166203Y-64592330D01*
X45243578Y-64695689D01*
X45267995Y-64761153D01*
X45253144Y-64829426D01*
X45243578Y-64844311D01*
X45166203Y-64947669D01*
X45166202Y-64947671D01*
X45115908Y-65082517D01*
X45109501Y-65142116D01*
X45109501Y-65142123D01*
X45109500Y-65142135D01*
X45109500Y-66937870D01*
X45109501Y-66937876D01*
X45115908Y-66997483D01*
X45166202Y-67132328D01*
X45166203Y-67132330D01*
X45243578Y-67235689D01*
X45267995Y-67301153D01*
X45253144Y-67369426D01*
X45243578Y-67384311D01*
X45166203Y-67487669D01*
X45166202Y-67487671D01*
X45115908Y-67622517D01*
X45109501Y-67682116D01*
X45109501Y-67682123D01*
X45109500Y-67682135D01*
X45109500Y-69477870D01*
X45109501Y-69477876D01*
X45115908Y-69537483D01*
X45166202Y-69672328D01*
X45166203Y-69672330D01*
X45243578Y-69775689D01*
X45267995Y-69841153D01*
X45253144Y-69909426D01*
X45243578Y-69924311D01*
X45166203Y-70027669D01*
X45166202Y-70027671D01*
X45115908Y-70162517D01*
X45109501Y-70222116D01*
X45109501Y-70222123D01*
X45109500Y-70222135D01*
X45109500Y-72017870D01*
X45109501Y-72017876D01*
X45115908Y-72077483D01*
X45166202Y-72212328D01*
X45166203Y-72212330D01*
X45243578Y-72315689D01*
X45267995Y-72381153D01*
X45253144Y-72449426D01*
X45243578Y-72464311D01*
X45166203Y-72567669D01*
X45166202Y-72567671D01*
X45115908Y-72702517D01*
X45109501Y-72762116D01*
X45109501Y-72762123D01*
X45109500Y-72762135D01*
X45109500Y-74557870D01*
X45109501Y-74557876D01*
X45115908Y-74617483D01*
X45166202Y-74752328D01*
X45166203Y-74752330D01*
X45243578Y-74855689D01*
X45267995Y-74921153D01*
X45253144Y-74989426D01*
X45243578Y-75004311D01*
X45166203Y-75107669D01*
X45166202Y-75107671D01*
X45115908Y-75242517D01*
X45109501Y-75302116D01*
X45109501Y-75302123D01*
X45109500Y-75302135D01*
X45109500Y-77097870D01*
X45109501Y-77097876D01*
X45115908Y-77157483D01*
X45166202Y-77292328D01*
X45166203Y-77292330D01*
X45243578Y-77395689D01*
X45267995Y-77461153D01*
X45253144Y-77529426D01*
X45243578Y-77544311D01*
X45166203Y-77647669D01*
X45166202Y-77647671D01*
X45115908Y-77782517D01*
X45109501Y-77842116D01*
X45109501Y-77842123D01*
X45109500Y-77842135D01*
X45109500Y-79637870D01*
X45109501Y-79637876D01*
X45115908Y-79697483D01*
X45166202Y-79832328D01*
X45166203Y-79832330D01*
X45243578Y-79935689D01*
X45267995Y-80001153D01*
X45253144Y-80069426D01*
X45243578Y-80084311D01*
X45166203Y-80187669D01*
X45166202Y-80187671D01*
X45115908Y-80322517D01*
X45109501Y-80382116D01*
X45109501Y-80382123D01*
X45109500Y-80382135D01*
X45109500Y-82177870D01*
X45109501Y-82177876D01*
X45115908Y-82237483D01*
X45166202Y-82372328D01*
X45166203Y-82372330D01*
X45243578Y-82475689D01*
X45267995Y-82541153D01*
X45253144Y-82609426D01*
X45243578Y-82624311D01*
X45166203Y-82727669D01*
X45166202Y-82727671D01*
X45115908Y-82862517D01*
X45112955Y-82889989D01*
X45109501Y-82922123D01*
X45109500Y-82922135D01*
X45109500Y-84717870D01*
X45109501Y-84717876D01*
X45115908Y-84777483D01*
X45166202Y-84912328D01*
X45166203Y-84912330D01*
X45243578Y-85015689D01*
X45267995Y-85081153D01*
X45253144Y-85149426D01*
X45243578Y-85164311D01*
X45166203Y-85267669D01*
X45166202Y-85267671D01*
X45115908Y-85402517D01*
X45109501Y-85462116D01*
X45109501Y-85462123D01*
X45109500Y-85462135D01*
X45109500Y-87257870D01*
X45109501Y-87257876D01*
X45115908Y-87317483D01*
X45166202Y-87452328D01*
X45166203Y-87452330D01*
X45166204Y-87452331D01*
X45243576Y-87555687D01*
X45243578Y-87555689D01*
X45267995Y-87621153D01*
X45253144Y-87689426D01*
X45243578Y-87704311D01*
X45166203Y-87807669D01*
X45166202Y-87807671D01*
X45115908Y-87942517D01*
X45109501Y-88002116D01*
X45109501Y-88002123D01*
X45109500Y-88002135D01*
X45109500Y-89797870D01*
X45109501Y-89797876D01*
X45115908Y-89857483D01*
X45166202Y-89992328D01*
X45166203Y-89992330D01*
X45243578Y-90095689D01*
X45267995Y-90161153D01*
X45253144Y-90229426D01*
X45243578Y-90244311D01*
X45166203Y-90347669D01*
X45166202Y-90347671D01*
X45115908Y-90482517D01*
X45109501Y-90542116D01*
X45109501Y-90542123D01*
X45109500Y-90542135D01*
X45109500Y-92337870D01*
X45109501Y-92337876D01*
X45115908Y-92397483D01*
X45166202Y-92532328D01*
X45166203Y-92532330D01*
X45243578Y-92635689D01*
X45267995Y-92701153D01*
X45253144Y-92769426D01*
X45243578Y-92784311D01*
X45166203Y-92887669D01*
X45166202Y-92887671D01*
X45115908Y-93022517D01*
X45109501Y-93082116D01*
X45109501Y-93082123D01*
X45109500Y-93082135D01*
X45109500Y-94877870D01*
X45109501Y-94877876D01*
X45115908Y-94937483D01*
X45166202Y-95072328D01*
X45166203Y-95072330D01*
X45199508Y-95116819D01*
X45243576Y-95175687D01*
X45243578Y-95175689D01*
X45267995Y-95241153D01*
X45253144Y-95309426D01*
X45243578Y-95324311D01*
X45166203Y-95427669D01*
X45166202Y-95427671D01*
X45115908Y-95562517D01*
X45109501Y-95622116D01*
X45109501Y-95622123D01*
X45109500Y-95622135D01*
X45109500Y-97417870D01*
X45109501Y-97417876D01*
X45115908Y-97477483D01*
X45166202Y-97612328D01*
X45166206Y-97612335D01*
X45243889Y-97716105D01*
X45268307Y-97781569D01*
X45253456Y-97849842D01*
X45243890Y-97864727D01*
X45166647Y-97967910D01*
X45166645Y-97967913D01*
X45116403Y-98102620D01*
X45116401Y-98102627D01*
X45110000Y-98162155D01*
X45110000Y-98810000D01*
X47814428Y-98810000D01*
X47791318Y-98845960D01*
X47750000Y-98986673D01*
X47750000Y-99133327D01*
X47791318Y-99274040D01*
X47814428Y-99310000D01*
X45110000Y-99310000D01*
X45110000Y-99957844D01*
X45116401Y-100017372D01*
X45116403Y-100017379D01*
X45166645Y-100152086D01*
X45166646Y-100152088D01*
X45243890Y-100255272D01*
X45268307Y-100320736D01*
X45253456Y-100389009D01*
X45243890Y-100403894D01*
X45166204Y-100507669D01*
X45166202Y-100507671D01*
X45115908Y-100642517D01*
X45109501Y-100702116D01*
X45109501Y-100702123D01*
X45109500Y-100702135D01*
X45109500Y-102497870D01*
X45109501Y-102497876D01*
X45115908Y-102557483D01*
X45166202Y-102692328D01*
X45166203Y-102692330D01*
X45243578Y-102795689D01*
X45267995Y-102861153D01*
X45253144Y-102929426D01*
X45243578Y-102944311D01*
X45166203Y-103047669D01*
X45166202Y-103047671D01*
X45115908Y-103182517D01*
X45109501Y-103242116D01*
X45109501Y-103242123D01*
X45109500Y-103242135D01*
X45109500Y-105037870D01*
X38100500Y-105037870D01*
X38100500Y-45844500D01*
X38120185Y-45777461D01*
X38172989Y-45731706D01*
X38224500Y-45720500D01*
X114175500Y-45720500D01*
X114242539Y-45740185D01*
G37*
%TD.AperFunction*%
%TD*%
M02*
