%TF.GenerationSoftware,KiCad,Pcbnew,7.0.10-7.0.10~ubuntu22.04.1*%
%TF.CreationDate,2024-03-31T22:48:29-03:00*%
%TF.ProjectId,SweetSafe,53776565-7453-4616-9665-2e6b69636164,rev?*%
%TF.SameCoordinates,Original*%
%TF.FileFunction,Soldermask,Top*%
%TF.FilePolarity,Negative*%
%FSLAX46Y46*%
G04 Gerber Fmt 4.6, Leading zero omitted, Abs format (unit mm)*
G04 Created by KiCad (PCBNEW 7.0.10-7.0.10~ubuntu22.04.1) date 2024-03-31 22:48:29*
%MOMM*%
%LPD*%
G01*
G04 APERTURE LIST*
G04 Aperture macros list*
%AMRoundRect*
0 Rectangle with rounded corners*
0 $1 Rounding radius*
0 $2 $3 $4 $5 $6 $7 $8 $9 X,Y pos of 4 corners*
0 Add a 4 corners polygon primitive as box body*
4,1,4,$2,$3,$4,$5,$6,$7,$8,$9,$2,$3,0*
0 Add four circle primitives for the rounded corners*
1,1,$1+$1,$2,$3*
1,1,$1+$1,$4,$5*
1,1,$1+$1,$6,$7*
1,1,$1+$1,$8,$9*
0 Add four rect primitives between the rounded corners*
20,1,$1+$1,$2,$3,$4,$5,0*
20,1,$1+$1,$4,$5,$6,$7,0*
20,1,$1+$1,$6,$7,$8,$9,0*
20,1,$1+$1,$8,$9,$2,$3,0*%
G04 Aperture macros list end*
%ADD10RoundRect,0.102000X1.237500X1.237500X-1.237500X1.237500X-1.237500X-1.237500X1.237500X-1.237500X0*%
%ADD11C,2.679000*%
%ADD12C,2.400000*%
%ADD13O,2.400000X2.400000*%
%ADD14R,2.000000X2.000000*%
%ADD15C,2.000000*%
%ADD16R,1.500000X1.500000*%
%ADD17C,1.500000*%
%ADD18O,1.800000X1.800000*%
%ADD19O,1.500000X1.500000*%
%ADD20O,1.700000X1.700000*%
%ADD21R,3.500000X1.700000*%
%ADD22R,1.700000X1.700000*%
%ADD23R,1.700000X3.500000*%
%ADD24R,3.500000X3.500000*%
%ADD25RoundRect,0.750000X0.750000X1.000000X-0.750000X1.000000X-0.750000X-1.000000X0.750000X-1.000000X0*%
%ADD26RoundRect,0.875000X0.875000X0.875000X-0.875000X0.875000X-0.875000X-0.875000X0.875000X-0.875000X0*%
G04 APERTURE END LIST*
D10*
%TO.C,SW1*%
X66040000Y-114300000D03*
D11*
X49940000Y-114300000D03*
X57240000Y-114300000D03*
%TD*%
D12*
%TO.C,R1*%
X73660000Y-106680000D03*
D13*
X88900000Y-106680000D03*
%TD*%
D14*
%TO.C,BZ1*%
X86380000Y-76200000D03*
D15*
X93980000Y-76200000D03*
%TD*%
D16*
%TO.C,Q1*%
X101600000Y-93980000D03*
D17*
X101600000Y-91440000D03*
X101600000Y-88900000D03*
%TD*%
D12*
%TO.C,R3*%
X78740000Y-91440000D03*
D13*
X93980000Y-91440000D03*
%TD*%
D18*
%TO.C,U1*%
X54425000Y-56010000D03*
D19*
X54725000Y-59040000D03*
X59575000Y-59040000D03*
D18*
X59875000Y-56010000D03*
D20*
X48260000Y-55880000D03*
D21*
X47360000Y-55880000D03*
D20*
X48260000Y-58420000D03*
D21*
X47360000Y-58420000D03*
D22*
X48260000Y-60960000D03*
D21*
X47360000Y-60960000D03*
D20*
X48260000Y-63500000D03*
D21*
X47360000Y-63500000D03*
D20*
X48260000Y-66040000D03*
D21*
X47360000Y-66040000D03*
D20*
X48260000Y-68580000D03*
D21*
X47360000Y-68580000D03*
D20*
X48260000Y-71120000D03*
D21*
X47360000Y-71120000D03*
D22*
X48260000Y-73660000D03*
D21*
X47360000Y-73660000D03*
D20*
X48260000Y-76200000D03*
D21*
X47360000Y-76200000D03*
D20*
X48260000Y-78740000D03*
D21*
X47360000Y-78740000D03*
D20*
X48260000Y-81280000D03*
D21*
X47360000Y-81280000D03*
D20*
X48260000Y-83820000D03*
D21*
X47360000Y-83820000D03*
D22*
X48260000Y-86360000D03*
D21*
X47360000Y-86360000D03*
D20*
X48260000Y-88900000D03*
D21*
X47360000Y-88900000D03*
D20*
X48260000Y-91440000D03*
D21*
X47360000Y-91440000D03*
D20*
X48260000Y-93980000D03*
D21*
X47360000Y-93980000D03*
D20*
X48260000Y-96520000D03*
D21*
X47360000Y-96520000D03*
D22*
X48260000Y-99060000D03*
D21*
X47360000Y-99060000D03*
D20*
X48260000Y-101600000D03*
D21*
X47360000Y-101600000D03*
D20*
X48260000Y-104140000D03*
D21*
X47360000Y-104140000D03*
D20*
X66040000Y-104140000D03*
D21*
X66940000Y-104140000D03*
D20*
X66040000Y-101600000D03*
D21*
X66940000Y-101600000D03*
D22*
X66040000Y-99060000D03*
D21*
X66940000Y-99060000D03*
D20*
X66040000Y-96520000D03*
D21*
X66940000Y-96520000D03*
D20*
X66040000Y-93980000D03*
D21*
X66940000Y-93980000D03*
D20*
X66040000Y-91440000D03*
D21*
X66940000Y-91440000D03*
D20*
X66040000Y-88900000D03*
D21*
X66940000Y-88900000D03*
D22*
X66040000Y-86360000D03*
D21*
X66940000Y-86360000D03*
D20*
X66040000Y-83820000D03*
D21*
X66940000Y-83820000D03*
D20*
X66040000Y-81280000D03*
D21*
X66940000Y-81280000D03*
D20*
X66040000Y-78740000D03*
D21*
X66940000Y-78740000D03*
D20*
X66040000Y-76200000D03*
D21*
X66940000Y-76200000D03*
D22*
X66040000Y-73660000D03*
D21*
X66940000Y-73660000D03*
D20*
X66040000Y-71120000D03*
D21*
X66940000Y-71120000D03*
D20*
X66040000Y-68580000D03*
D21*
X66940000Y-68580000D03*
D20*
X66040000Y-66040000D03*
D21*
X66940000Y-66040000D03*
D20*
X66040000Y-63500000D03*
D21*
X66940000Y-63500000D03*
D22*
X66040000Y-60960000D03*
D21*
X66940000Y-60960000D03*
D20*
X66040000Y-58420000D03*
D21*
X66940000Y-58420000D03*
D20*
X66040000Y-55880000D03*
D21*
X66940000Y-55880000D03*
D20*
X54610000Y-103910000D03*
D23*
X54610000Y-104810000D03*
D22*
X57150000Y-103910000D03*
D23*
X57150000Y-104810000D03*
D20*
X59690000Y-103910000D03*
D23*
X59690000Y-104810000D03*
%TD*%
D24*
%TO.C,J1*%
X85440000Y-58800000D03*
D25*
X91440000Y-58800000D03*
D26*
X88440000Y-54100000D03*
%TD*%
D22*
%TO.C,Electromagnet+*%
X106680000Y-114300000D03*
D20*
X109220000Y-114300000D03*
%TD*%
D12*
%TO.C,R2*%
X76200000Y-99060000D03*
D13*
X91440000Y-99060000D03*
%TD*%
D22*
%TO.C,GreenLed+*%
X76200000Y-114300000D03*
D20*
X78740000Y-114300000D03*
%TD*%
D22*
%TO.C,RedLed+*%
X91440000Y-114300000D03*
D20*
X93980000Y-114300000D03*
%TD*%
M02*
